<svg version="1.1" viewBox="0.0 0.0 564.3910761154856 309.98162729658793" fill="none" stroke="none" stroke-linecap="square" stroke-miterlimit="10" xmlns:xlink="http://www.w3.org/1999/xlink" xmlns="http://www.w3.org/2000/svg"><clipPath id="p.0"><path d="m0 0l564.39105 0l0 309.98163l-564.39105 0l0 -309.98163z" clip-rule="nonzero"/></clipPath><g clip-path="url(#p.0)"><path fill="#000000" fill-opacity="0.0" d="m0 0l564.39105 0l0 309.98163l-564.39105 0z" fill-rule="evenodd"/><path fill="#c9daf8" d="m0.5328084 50.733288l0 0c0 -27.72496 22.47552 -50.200478 50.200478 -50.200478l449.36282 0c13.313995 0 26.082672 5.288964 35.4971 14.70338c9.414429 9.414416 14.703369 22.183105 14.703369 35.4971l0 200.79588c0 27.724976 -22.475525 50.20047 -50.20047 50.20047l-449.36282 0c-27.72496 0 -50.200478 -22.475494 -50.200478 -50.20047z" fill-rule="evenodd"/><path stroke="#000000" stroke-width="1.0" stroke-linejoin="round" stroke-linecap="butt" d="m0.5328084 50.733288l0 0c0 -27.72496 22.47552 -50.200478 50.200478 -50.200478l449.36282 0c13.313995 0 26.082672 5.288964 35.4971 14.70338c9.414429 9.414416 14.703369 22.183105 14.703369 35.4971l0 200.79588c0 27.724976 -22.475525 50.20047 -50.20047 50.20047l-449.36282 0c-27.72496 0 -50.200478 -22.475494 -50.200478 -50.20047z" fill-rule="evenodd"/><path fill="#000000" fill-opacity="0.0" d="m6.7125983 16.755905l135.84251 0l0 42.015747l-135.84251 0z" fill-rule="evenodd"/><path fill="#000000" d="m21.806349 43.675903q-0.296875 0 -0.515625 -0.203125q-0.203125 -0.21875 -0.203125 -0.53125l0 -13.84375l1.453125 0l0 13.84375q0 0.3125 -0.203125 0.53125q-0.203125 0.203125 -0.53125 0.203125zm-5.140625 -13.25q-0.296875 0 -0.484375 -0.1875q-0.1875 -0.1875 -0.1875 -0.46875q0 -0.296875 0.1875 -0.484375q0.1875 -0.1875 0.484375 -0.1875l10.3125 0q0.296875 0 0.484375 0.1875q0.1875 0.1875 0.1875 0.484375q0 0.28125 -0.1875 0.46875q-0.1875 0.1875 -0.484375 0.1875l-10.3125 0zm13.783188 13.25q-0.328125 0 -0.53125 -0.1875q-0.1875 -0.203125 -0.1875 -0.546875l0 -8.75q0 -0.328125 0.1875 -0.515625q0.203125 -0.203125 0.53125 -0.203125q0.3125 0 0.515625 0.203125q0.203125 0.1875 0.203125 0.515625l0 8.75q0 0.34375 -0.203125 0.546875q-0.203125 0.1875 -0.515625 0.1875zm-0.015625 -12.140625q-0.421875 0 -0.71875 -0.296875q-0.296875 -0.3125 -0.296875 -0.734375q0 -0.46875 0.3125 -0.734375q0.3125 -0.265625 0.71875 -0.265625q0.390625 0 0.6875 0.265625q0.3125 0.265625 0.3125 0.734375q0 0.421875 -0.296875 0.734375q-0.296875 0.296875 -0.71875 0.296875zm9.016661 12.234375q-1.515625 0 -2.6875 -0.65625q-1.15625 -0.671875 -1.828125 -1.84375q-0.65625 -1.171875 -0.65625 -2.6875q0 -1.53125 0.625 -2.6875q0.625 -1.171875 1.71875 -1.84375q1.109375 -0.671875 2.546875 -0.671875q1.40625 0 2.453125 0.640625q1.0625 0.640625 1.640625 1.78125q0.578125 1.140625 0.578125 2.59375q0 0.296875 -0.1875 0.484375q-0.1875 0.171875 -0.484375 0.171875l-7.921875 0l0 -1.203125l8.078125 0l-0.796875 0.578125q0.015625 -1.078125 -0.40625 -1.9375q-0.40625 -0.859375 -1.15625 -1.34375q-0.75 -0.484375 -1.796875 -0.484375q-1.0625 0 -1.875 0.515625q-0.796875 0.5 -1.234375 1.390625q-0.4375 0.875 -0.4375 2.015625q0 1.140625 0.484375 2.015625q0.5 0.875 1.359375 1.390625q0.859375 0.5 1.984375 0.5q0.671875 0 1.34375 -0.234375q0.6875 -0.234375 1.09375 -0.59375q0.203125 -0.171875 0.46875 -0.171875q0.265625 -0.015625 0.4375 0.140625q0.25 0.21875 0.25 0.484375q0.015625 0.25 -0.203125 0.4375q-0.625 0.53125 -1.578125 0.875q-0.9375 0.34375 -1.8125 0.34375zm7.423691 -6.375q0.046875 -1.15625 0.59375 -2.0625q0.5625 -0.921875 1.4375 -1.4375q0.890625 -0.53125 1.96875 -0.53125q0.859375 0 1.328125 0.25q0.46875 0.234375 0.359375 0.703125q-0.078125 0.28125 -0.265625 0.375q-0.171875 0.078125 -0.421875 0.0625q-0.25 -0.015625 -0.5625 -0.03125q-1.046875 -0.09375 -1.859375 0.21875q-0.8125 0.296875 -1.296875 0.9375q-0.46875 0.640625 -0.46875 1.515625l-0.8125 0zm0.109375 6.28125q-0.34375 0 -0.53125 -0.1875q-0.1875 -0.1875 -0.1875 -0.515625l0 -8.796875q0 -0.328125 0.1875 -0.515625q0.1875 -0.1875 0.53125 -0.1875q0.328125 0 0.515625 0.1875q0.1875 0.1875 0.1875 0.515625l0 8.796875q0 0.328125 -0.1875 0.515625q-0.1875 0.1875 -0.515625 0.1875zm16.073349 0q-0.296875 0 -0.515625 -0.203125q-0.203125 -0.203125 -0.203125 -0.53125l0 -12.125l-1.875 0.65625q-0.203125 0.09375 -0.359375 0.09375q-0.328125 0 -0.53125 -0.203125q-0.203125 -0.203125 -0.203125 -0.5q0 -0.234375 0.09375 -0.40625q0.109375 -0.1875 0.375 -0.28125l2.875 -1.0q0.09375 -0.03125 0.1875 -0.0625q0.109375 -0.03125 0.1875 -0.03125q0.3125 0 0.5 0.21875q0.203125 0.21875 0.203125 0.515625l0 13.125q0 0.328125 -0.203125 0.53125q-0.203125 0.203125 -0.53125 0.203125z" fill-rule="nonzero"/><path fill="#000000" fill-opacity="0.0" d="m126.58793 16.755905l400.126 0l0 42.015747l-400.126 0z" fill-rule="evenodd"/><path fill="#000000" d="m143.99417 44.67128q-1.5 0 -2.828125 -0.578125q-1.3125 -0.578125 -2.3125 -1.609375q-0.984375 -1.046875 -1.546875 -2.390625q-0.5625 -1.359375 -0.5625 -2.90625q0 -1.53125 0.546875 -2.875q0.546875 -1.359375 1.546875 -2.375q1.0 -1.03125 2.3125 -1.609375q1.328125 -0.59375 2.84375 -0.59375q1.34375 0 2.4375 0.390625q1.109375 0.390625 2.140625 1.25q0.171875 0.125 0.1875 0.3125q0.03125 0.171875 -0.046875 0.328125q-0.0625 0.15625 -0.21875 0.234375q-0.03125 0.140625 -0.1875 0.21875q-0.140625 0.078125 -0.34375 0.0625q-0.1875 -0.03125 -0.375 -0.171875q-0.734375 -0.640625 -1.59375 -0.9375q-0.859375 -0.3125 -2.0 -0.3125q-1.203125 0 -2.265625 0.484375q-1.046875 0.484375 -1.859375 1.328125q-0.796875 0.828125 -1.25 1.9375q-0.453125 1.09375 -0.453125 2.328125q0 1.265625 0.453125 2.375q0.453125 1.09375 1.25 1.9375q0.8125 0.84375 1.859375 1.328125q1.0625 0.46875 2.265625 0.46875q1.03125 0 1.9375 -0.328125q0.921875 -0.34375 1.75 -0.984375q0.21875 -0.1875 0.46875 -0.140625q0.25 0.03125 0.4375 0.21875q0.1875 0.1875 0.1875 0.484375q0 0.140625 -0.046875 0.265625q-0.046875 0.125 -0.15625 0.25q-0.953125 0.875 -2.125 1.25q-1.171875 0.359375 -2.453125 0.359375zm8.328003 -4.34375q-0.328125 0 -0.53125 -0.203125q-0.203125 -0.21875 -0.203125 -0.53125l0 -8.953125q0 -0.328125 0.203125 -0.53125q0.203125 -0.203125 0.53125 -0.203125q0.3125 0 0.5 0.203125q0.203125 0.203125 0.203125 0.53125l0 8.953125q0 0.3125 -0.203125 0.53125q-0.1875 0.203125 -0.5 0.203125zm8.015625 4.15625q-0.3125 0 -0.515625 -0.203125q-0.203125 -0.203125 -0.203125 -0.5l0 -4.859375q0 -1.15625 -0.4375 -1.890625q-0.4375 -0.75 -1.203125 -1.125q-0.75 -0.375 -1.703125 -0.375q-0.90625 0 -1.65625 0.359375q-0.734375 0.34375 -1.171875 0.96875q-0.421875 0.609375 -0.421875 1.390625l-1.015625 0q0.03125 -1.171875 0.625 -2.09375q0.609375 -0.921875 1.59375 -1.453125q0.984375 -0.53125 2.203125 -0.53125q1.3125 0 2.359375 0.546875q1.046875 0.546875 1.65625 1.609375q0.609375 1.0625 0.609375 2.59375l0 4.859375q0 0.296875 -0.203125 0.5q-0.203125 0.203125 -0.515625 0.203125zm-8.015625 0q-0.328125 0 -0.53125 -0.1875q-0.203125 -0.203125 -0.203125 -0.515625l0 -8.78125q0 -0.328125 0.203125 -0.515625q0.203125 -0.203125 0.53125 -0.203125q0.3125 0 0.5 0.203125q0.203125 0.1875 0.203125 0.515625l0 8.78125q0 0.3125 -0.203125 0.515625q-0.1875 0.1875 -0.5 0.1875zm16.395905 0.09375q-1.4375 0 -2.578125 -0.671875q-1.125 -0.6875 -1.796875 -1.859375q-0.65625 -1.1875 -0.65625 -2.65625q0 -1.484375 0.671875 -2.65625q0.6875 -1.1875 1.859375 -1.859375q1.171875 -0.6875 2.65625 -0.6875q1.46875 0 2.625 0.6875q1.171875 0.671875 1.859375 1.859375q0.6875 1.171875 0.703125 2.65625l-0.578125 0.453125q0 1.34375 -0.625 2.421875q-0.625 1.0625 -1.703125 1.6875q-1.078125 0.625 -2.4375 0.625zm0.15625 -1.3125q1.078125 0 1.921875 -0.5q0.859375 -0.5 1.34375 -1.390625q0.5 -0.890625 0.5 -1.984375q0 -1.125 -0.5 -2.0q-0.484375 -0.875 -1.34375 -1.390625q-0.84375 -0.515625 -1.921875 -0.515625q-1.0625 0 -1.921875 0.515625q-0.859375 0.515625 -1.375 1.390625q-0.5 0.875 -0.5 2.0q0 1.09375 0.5 1.984375q0.515625 0.890625 1.375 1.390625q0.859375 0.5 1.921875 0.5zm4.453125 1.21875q-0.3125 0 -0.515625 -0.1875q-0.203125 -0.203125 -0.203125 -0.515625l0 -3.203125l0.34375 -1.46875l1.109375 0.28125l0 4.390625q0 0.3125 -0.21875 0.515625q-0.203125 0.1875 -0.515625 0.1875zm7.5209045 0q-0.984375 0 -1.765625 -0.46875q-0.765625 -0.46875 -1.21875 -1.28125q-0.453125 -0.8125 -0.453125 -1.84375l0 -9.125q0 -0.328125 0.1875 -0.53125q0.203125 -0.203125 0.53125 -0.203125q0.3125 0 0.515625 0.203125q0.203125 0.203125 0.203125 0.53125l0 9.125q0 0.9375 0.5625 1.546875q0.5625 0.609375 1.4375 0.609375l0.5 0q0.296875 0 0.484375 0.203125q0.1875 0.203125 0.1875 0.53125q0 0.3125 -0.21875 0.515625q-0.21875 0.1875 -0.5625 0.1875l-0.390625 0zm-4.640625 -8.578125q-0.28125 0 -0.46875 -0.171875q-0.1875 -0.1875 -0.1875 -0.453125q0 -0.28125 0.1875 -0.453125q0.1875 -0.171875 0.46875 -0.171875l4.75 0q0.28125 0 0.46875 0.171875q0.1875 0.171875 0.1875 0.453125q0 0.265625 -0.1875 0.453125q-0.1875 0.171875 -0.46875 0.171875l-4.75 0zm14.874817 8.765625q-1.5 0 -2.828125 -0.578125q-1.3125 -0.578125 -2.3125 -1.609375q-0.984375 -1.046875 -1.546875 -2.390625q-0.5625 -1.359375 -0.5625 -2.90625q0 -1.53125 0.546875 -2.875q0.546875 -1.359375 1.546875 -2.375q1.0 -1.03125 2.3125 -1.609375q1.328125 -0.59375 2.84375 -0.59375q1.34375 0 2.4375 0.390625q1.109375 0.390625 2.140625 1.25q0.171875 0.125 0.1875 0.3125q0.03125 0.171875 -0.046875 0.328125q-0.0625 0.15625 -0.21875 0.234375q-0.03125 0.140625 -0.1875 0.21875q-0.140625 0.078125 -0.34375 0.0625q-0.1875 -0.03125 -0.375 -0.171875q-0.734375 -0.640625 -1.59375 -0.9375q-0.859375 -0.3125 -2.0 -0.3125q-1.203125 0 -2.265625 0.484375q-1.046875 0.484375 -1.859375 1.328125q-0.796875 0.828125 -1.25 1.9375q-0.453125 1.09375 -0.453125 2.328125q0 1.265625 0.453125 2.375q0.453125 1.09375 1.25 1.9375q0.8125 0.84375 1.859375 1.328125q1.0625 0.46875 2.265625 0.46875q1.03125 0 1.9375 -0.328125q0.921875 -0.34375 1.75 -0.984375q0.21875 -0.1875 0.46875 -0.140625q0.25 0.03125 0.4375 0.21875q0.1875 0.1875 0.1875 0.484375q0 0.140625 -0.046875 0.265625q-0.03125 0.125 -0.15625 0.25q-0.953125 0.875 -2.125 1.25q-1.171875 0.359375 -2.453125 0.359375zm4.78125 -2.125l-1.421875 -0.296875l0 -3.75l-2.90625 0q-0.3125 0 -0.515625 -0.1875q-0.203125 -0.1875 -0.203125 -0.46875q0 -0.28125 0.203125 -0.453125q0.203125 -0.1875 0.515625 -0.1875l3.609375 0q0.3125 0 0.515625 0.203125q0.203125 0.1875 0.203125 0.515625l0 4.625zm3.734253 1.9375q-0.3125 0 -0.53125 -0.203125q-0.203125 -0.203125 -0.203125 -0.53125l0 -13.109375q0 -0.3125 0.203125 -0.515625q0.21875 -0.21875 0.53125 -0.21875l3.734375 0q1.375 0 2.4375 0.609375q1.0625 0.609375 1.65625 1.671875q0.609375 1.0625 0.609375 2.46875q0 1.359375 -0.609375 2.421875q-0.59375 1.046875 -1.65625 1.65625q-1.0625 0.59375 -2.4375 0.59375l-3.0 0l0 4.421875q0 0.328125 -0.21875 0.53125q-0.203125 0.203125 -0.515625 0.203125zm0.734375 -6.546875l3.0 0q0.953125 0 1.6875 -0.421875q0.75 -0.421875 1.171875 -1.15625q0.421875 -0.75 0.421875 -1.703125q0 -1.0 -0.421875 -1.734375q-0.421875 -0.75 -1.171875 -1.171875q-0.734375 -0.4375 -1.6875 -0.4375l-3.0 0l0 6.625zm14.369919 6.546875q-0.296875 0 -0.515625 -0.203125q-0.203125 -0.21875 -0.203125 -0.53125l0 -13.84375l1.453125 0l0 13.84375q0 0.3125 -0.203125 0.53125q-0.203125 0.203125 -0.53125 0.203125zm-5.140625 -13.25q-0.296875 0 -0.484375 -0.1875q-0.1875 -0.1875 -0.1875 -0.46875q0 -0.296875 0.1875 -0.484375q0.1875 -0.1875 0.484375 -0.1875l10.3125 0q0.296875 0 0.484375 0.1875q0.1875 0.1875 0.1875 0.484375q0 0.28125 -0.1875 0.46875q-0.1875 0.1875 -0.484375 0.1875l-10.3125 0zm11.102356 16.265625q-0.1875 0 -0.296875 -0.109375q-0.09375 -0.09375 -0.09375 -0.25q0 -0.28125 0.15625 -0.515625q0.171875 -0.234375 0.34375 -0.5q0.1875 -0.265625 0.1875 -0.640625q0 -0.328125 -0.140625 -0.5625q-0.125 -0.21875 -0.3125 -0.390625q-0.171875 -0.171875 -0.296875 -0.390625q-0.125 -0.21875 -0.125 -0.53125q0 -0.46875 0.296875 -0.75q0.3125 -0.28125 0.78125 -0.28125q0.5625 0 0.90625 0.4375q0.359375 0.4375 0.359375 1.21875q0 0.53125 -0.15625 1.109375q-0.140625 0.578125 -0.40625 1.0625q-0.25 0.5 -0.578125 0.796875q-0.3125 0.296875 -0.625 0.296875zm16.573212 -2.828125q-1.5 0 -2.828125 -0.578125q-1.3125 -0.578125 -2.3125 -1.609375q-0.984375 -1.046875 -1.546875 -2.390625q-0.5625 -1.359375 -0.5625 -2.90625q0 -1.53125 0.546875 -2.875q0.546875 -1.359375 1.546875 -2.375q1.0 -1.03125 2.3125 -1.609375q1.328125 -0.59375 2.84375 -0.59375q1.34375 0 2.4375 0.390625q1.109375 0.390625 2.140625 1.25q0.171875 0.125 0.1875 0.3125q0.03125 0.171875 -0.046875 0.328125q-0.0625 0.15625 -0.21875 0.234375q-0.03125 0.140625 -0.1875 0.21875q-0.140625 0.078125 -0.34375 0.0625q-0.1875 -0.03125 -0.375 -0.171875q-0.734375 -0.640625 -1.59375 -0.9375q-0.859375 -0.3125 -2.0 -0.3125q-1.203125 0 -2.265625 0.484375q-1.046875 0.484375 -1.859375 1.328125q-0.796875 0.828125 -1.25 1.9375q-0.453125 1.09375 -0.453125 2.328125q0 1.265625 0.453125 2.375q0.453125 1.09375 1.25 1.9375q0.8125 0.84375 1.859375 1.328125q1.0625 0.46875 2.265625 0.46875q1.03125 0 1.9375 -0.328125q0.921875 -0.34375 1.75 -0.984375q0.21875 -0.1875 0.46875 -0.140625q0.25 0.03125 0.4375 0.21875q0.1875 0.1875 0.1875 0.484375q0 0.140625 -0.046875 0.265625q-0.046875 0.125 -0.15625 0.25q-0.953125 0.875 -2.125 1.25q-1.171875 0.359375 -2.453125 0.359375zm9.796753 -0.1875q-0.734375 0 -1.328125 -0.40625q-0.59375 -0.421875 -0.921875 -1.140625q-0.3125 -0.734375 -0.3125 -1.6875l0 -10.625q0 -0.3125 0.1875 -0.515625q0.203125 -0.203125 0.515625 -0.203125q0.3125 0 0.5 0.203125q0.203125 0.203125 0.203125 0.515625l0 10.625q0 0.8125 0.328125 1.3125q0.328125 0.5 0.828125 0.5l0.46875 0q0.28125 0 0.453125 0.203125q0.171875 0.1875 0.171875 0.515625q0 0.3125 -0.234375 0.515625q-0.234375 0.1875 -0.609375 0.1875l-0.25 0zm6.99794 0.09375q-1.4375 0 -2.578125 -0.671875q-1.125 -0.6875 -1.796875 -1.859375q-0.65625 -1.1875 -0.65625 -2.65625q0 -1.484375 0.671875 -2.65625q0.6875 -1.1875 1.859375 -1.859375q1.171875 -0.6875 2.65625 -0.6875q1.46875 0 2.625 0.6875q1.171875 0.671875 1.859375 1.859375q0.6875 1.171875 0.703125 2.65625l-0.578125 0.453125q0 1.34375 -0.625 2.421875q-0.625 1.0625 -1.703125 1.6875q-1.078125 0.625 -2.4375 0.625zm0.15625 -1.3125q1.078125 0 1.921875 -0.5q0.859375 -0.5 1.34375 -1.390625q0.5 -0.890625 0.5 -1.984375q0 -1.125 -0.5 -2.0q-0.484375 -0.875 -1.34375 -1.390625q-0.84375 -0.515625 -1.921875 -0.515625q-1.0625 0 -1.921875 0.515625q-0.859375 0.515625 -1.375 1.390625q-0.5 0.875 -0.5 2.0q0 1.09375 0.5 1.984375q0.515625 0.890625 1.375 1.390625q0.859375 0.5 1.921875 0.5zm4.453125 1.21875q-0.3125 0 -0.515625 -0.1875q-0.203125 -0.203125 -0.203125 -0.515625l0 -3.203125l0.34375 -1.46875l1.109375 0.28125l0 4.390625q0 0.3125 -0.21875 0.515625q-0.203125 0.1875 -0.515625 0.1875zm7.9740295 0.109375q-1.328125 0 -2.375 -0.546875q-1.046875 -0.546875 -1.65625 -1.609375q-0.59375 -1.0625 -0.59375 -2.59375l0 -4.859375q0 -0.296875 0.203125 -0.5q0.203125 -0.203125 0.5 -0.203125q0.3125 0 0.515625 0.203125q0.203125 0.203125 0.203125 0.5l0 4.859375q0 1.15625 0.4375 1.90625q0.453125 0.734375 1.203125 1.109375q0.75 0.375 1.703125 0.375q0.921875 0 1.65625 -0.34375q0.734375 -0.359375 1.15625 -0.96875q0.4375 -0.625 0.4375 -1.40625l1.03125 0q-0.0625 1.171875 -0.65625 2.09375q-0.578125 0.921875 -1.578125 1.453125q-0.984375 0.53125 -2.1875 0.53125zm4.09375 -0.109375q-0.3125 0 -0.515625 -0.1875q-0.1875 -0.203125 -0.1875 -0.546875l0 -8.765625q0 -0.3125 0.1875 -0.5q0.203125 -0.203125 0.515625 -0.203125q0.328125 0 0.53125 0.203125q0.203125 0.1875 0.203125 0.5l0 8.765625q0 0.34375 -0.203125 0.546875q-0.203125 0.1875 -0.53125 0.1875zm8.739655 0.09375q-1.484375 0 -2.65625 -0.671875q-1.171875 -0.6875 -1.859375 -1.859375q-0.671875 -1.1875 -0.671875 -2.671875q0 -1.46875 0.65625 -2.640625q0.671875 -1.1875 1.796875 -1.859375q1.140625 -0.6875 2.578125 -0.6875q1.25 0 2.25 0.53125q1.015625 0.53125 1.640625 1.40625l0 -5.484375q0 -0.328125 0.203125 -0.53125q0.203125 -0.203125 0.515625 -0.203125q0.3125 0 0.515625 0.203125q0.21875 0.203125 0.21875 0.53125l0 8.8125q-0.046875 1.453125 -0.734375 2.625q-0.671875 1.15625 -1.84375 1.828125q-1.15625 0.671875 -2.609375 0.671875zm0 -1.3125q1.078125 0 1.921875 -0.5q0.859375 -0.515625 1.34375 -1.390625q0.5 -0.890625 0.5 -2.0q0 -1.109375 -0.5 -1.984375q-0.484375 -0.890625 -1.34375 -1.390625q-0.84375 -0.515625 -1.921875 -0.515625q-1.0625 0 -1.921875 0.515625q-0.859375 0.5 -1.375 1.390625q-0.5 0.875 -0.5 1.984375q0 1.109375 0.5 2.0q0.515625 0.875 1.375 1.390625q0.859375 0.5 1.921875 0.5zm13.174347 1.3125q-1.515625 0 -2.6875 -0.65625q-1.15625 -0.671875 -1.828125 -1.84375q-0.65625 -1.171875 -0.65625 -2.6875q0 -1.53125 0.625 -2.6875q0.625 -1.171875 1.71875 -1.84375q1.109375 -0.671875 2.546875 -0.671875q1.40625 0 2.453125 0.640625q1.0625 0.640625 1.640625 1.78125q0.578125 1.140625 0.578125 2.59375q0 0.296875 -0.1875 0.484375q-0.1875 0.171875 -0.484375 0.171875l-7.921875 0l0 -1.203125l8.078125 0l-0.796875 0.578125q0.015625 -1.078125 -0.40625 -1.9375q-0.40625 -0.859375 -1.15625 -1.34375q-0.75 -0.484375 -1.796875 -0.484375q-1.0625 0 -1.875 0.515625q-0.796875 0.5 -1.234375 1.390625q-0.4375 0.875 -0.4375 2.015625q0 1.140625 0.484375 2.015625q0.5 0.875 1.359375 1.390625q0.859375 0.5 1.984375 0.5q0.671875 0 1.34375 -0.234375q0.6875 -0.234375 1.09375 -0.59375q0.203125 -0.171875 0.46875 -0.171875q0.265625 -0.015625 0.4375 0.140625q0.25 0.21875 0.25 0.484375q0.015625 0.25 -0.203125 0.4375q-0.625 0.53125 -1.578125 0.875q-0.9375 0.34375 -1.8125 0.34375zm6.658081 2.921875q-0.1875 0 -0.296875 -0.109375q-0.09375 -0.09375 -0.09375 -0.25q0 -0.28125 0.15625 -0.515625q0.171875 -0.234375 0.34375 -0.5q0.1875 -0.265625 0.1875 -0.640625q0 -0.328125 -0.140625 -0.5625q-0.125 -0.21875 -0.3125 -0.390625q-0.171875 -0.171875 -0.296875 -0.390625q-0.125 -0.21875 -0.125 -0.53125q0 -0.46875 0.296875 -0.75q0.3125 -0.28125 0.78125 -0.28125q0.5625 0 0.90625 0.4375q0.359375 0.4375 0.359375 1.21875q0 0.53125 -0.15625 1.109375q-0.140625 0.578125 -0.40625 1.0625q-0.25 0.5 -0.578125 0.796875q-0.3125 0.296875 -0.625 0.296875zm10.760712 -3.015625q-0.3125 0 -0.53125 -0.203125q-0.203125 -0.203125 -0.203125 -0.53125l0 -13.109375q0 -0.3125 0.203125 -0.515625q0.21875 -0.21875 0.53125 -0.21875q0.3125 0 0.515625 0.21875q0.21875 0.203125 0.21875 0.515625l0 13.109375q0 0.328125 -0.21875 0.53125q-0.203125 0.203125 -0.515625 0.203125zm18.061432 0q-0.3125 0 -0.53125 -0.1875q-0.203125 -0.203125 -0.203125 -0.515625l0 -5.375q0 -1.328125 -0.6875 -2.09375q-0.6875 -0.78125 -1.765625 -0.78125q-1.15625 0 -1.90625 0.78125q-0.734375 0.765625 -0.71875 2.046875l-1.28125 0q0.015625 -1.25 0.53125 -2.1875q0.53125 -0.953125 1.4375 -1.46875q0.921875 -0.53125 2.078125 -0.53125q1.109375 0 1.953125 0.53125q0.84375 0.515625 1.3125 1.46875q0.484375 0.9375 0.484375 2.234375l0 5.375q0 0.3125 -0.203125 0.515625q-0.1875 0.1875 -0.5 0.1875zm-13.0625 0q-0.328125 0 -0.53125 -0.1875q-0.203125 -0.203125 -0.203125 -0.515625l0 -8.78125q0 -0.3125 0.203125 -0.515625q0.203125 -0.203125 0.53125 -0.203125q0.3125 0 0.5 0.203125q0.203125 0.203125 0.203125 0.515625l0 8.78125q0 0.3125 -0.203125 0.515625q-0.1875 0.1875 -0.5 0.1875zm6.546875 0q-0.3125 0 -0.515625 -0.1875q-0.203125 -0.203125 -0.203125 -0.515625l0 -5.375q0 -1.328125 -0.703125 -2.09375q-0.6875 -0.78125 -1.765625 -0.78125q-1.15625 0 -1.90625 0.765625q-0.75 0.75 -0.75 1.953125l-1.015625 0q0.03125 -1.1875 0.515625 -2.109375q0.5 -0.921875 1.359375 -1.4375q0.859375 -0.53125 1.9375 -0.53125q1.109375 0 1.953125 0.53125q0.859375 0.515625 1.328125 1.46875q0.46875 0.9375 0.46875 2.234375l0 5.375q0 0.3125 -0.203125 0.515625q-0.1875 0.1875 -0.5 0.1875zm14.8862 0.09375q-1.4375 0 -2.578125 -0.671875q-1.125 -0.6875 -1.796875 -1.859375q-0.65625 -1.1875 -0.65625 -2.65625q0 -1.484375 0.671875 -2.65625q0.6875 -1.1875 1.859375 -1.859375q1.171875 -0.6875 2.65625 -0.6875q1.46875 0 2.625 0.6875q1.171875 0.671875 1.859375 1.859375q0.6875 1.171875 0.703125 2.65625l-0.578125 0.453125q0 1.34375 -0.625 2.421875q-0.625 1.0625 -1.703125 1.6875q-1.078125 0.625 -2.4375 0.625zm0.15625 -1.3125q1.078125 0 1.921875 -0.5q0.859375 -0.5 1.34375 -1.390625q0.5 -0.890625 0.5 -1.984375q0 -1.125 -0.5 -2.0q-0.484375 -0.875 -1.34375 -1.390625q-0.84375 -0.515625 -1.921875 -0.515625q-1.0625 0 -1.921875 0.515625q-0.859375 0.515625 -1.375 1.390625q-0.5 0.875 -0.5 2.0q0 1.09375 0.5 1.984375q0.515625 0.890625 1.375 1.390625q0.859375 0.5 1.921875 0.5zm4.453125 1.21875q-0.3125 0 -0.515625 -0.1875q-0.203125 -0.203125 -0.203125 -0.515625l0 -3.203125l0.34375 -1.46875l1.109375 0.28125l0 4.390625q0 0.3125 -0.21875 0.515625q-0.203125 0.1875 -0.515625 0.1875zm8.020905 0.09375q-1.46875 0 -2.609375 -0.65625q-1.140625 -0.671875 -1.78125 -1.84375q-0.640625 -1.171875 -0.640625 -2.6875q0 -1.53125 0.671875 -2.703125q0.671875 -1.171875 1.84375 -1.828125q1.171875 -0.671875 2.671875 -0.671875q1.5 0 2.671875 0.671875q1.171875 0.65625 1.828125 1.828125q0.671875 1.171875 0.6875 2.703125l-0.84375 0.453125q0 1.375 -0.578125 2.453125q-0.578125 1.0625 -1.59375 1.671875q-1.015625 0.609375 -2.328125 0.609375zm0.1875 3.9375q-1.46875 0 -2.59375 -0.5625q-1.109375 -0.546875 -1.84375 -1.484375q-0.203125 -0.234375 -0.1875 -0.5q0.03125 -0.25 0.28125 -0.421875q0.234375 -0.171875 0.53125 -0.125q0.3125 0.0625 0.46875 0.296875q0.546875 0.671875 1.390625 1.078125q0.859375 0.40625 1.96875 0.40625q1.046875 0 1.890625 -0.5q0.84375 -0.5 1.328125 -1.421875q0.5 -0.90625 0.5 -2.140625l0 -2.828125l0.546875 -1.09375l0.875 0.171875l0 3.8125q0 1.5 -0.671875 2.703125q-0.671875 1.203125 -1.828125 1.90625q-1.15625 0.703125 -2.65625 0.703125zm-0.03125 -5.25q1.09375 0 1.9375 -0.484375q0.859375 -0.5 1.34375 -1.375q0.484375 -0.875 0.484375 -2.015625q0 -1.140625 -0.484375 -2.015625q-0.484375 -0.890625 -1.34375 -1.390625q-0.84375 -0.5 -1.9375 -0.5q-1.109375 0 -1.96875 0.5q-0.859375 0.5 -1.34375 1.390625q-0.484375 0.875 -0.484375 2.015625q0 1.140625 0.484375 2.015625q0.484375 0.875 1.34375 1.375q0.859375 0.484375 1.96875 0.484375zm12.614655 1.3125q-1.515625 0 -2.6875 -0.65625q-1.15625 -0.671875 -1.828125 -1.84375q-0.65625 -1.171875 -0.65625 -2.6875q0 -1.53125 0.625 -2.6875q0.625 -1.171875 1.71875 -1.84375q1.109375 -0.671875 2.546875 -0.671875q1.40625 0 2.453125 0.640625q1.0625 0.640625 1.640625 1.78125q0.578125 1.140625 0.578125 2.59375q0 0.296875 -0.1875 0.484375q-0.1875 0.171875 -0.484375 0.171875l-7.921875 0l0 -1.203125l8.078125 0l-0.796875 0.578125q0.015625 -1.078125 -0.40625 -1.9375q-0.40625 -0.859375 -1.15625 -1.34375q-0.75 -0.484375 -1.796875 -0.484375q-1.0625 0 -1.875 0.515625q-0.796875 0.5 -1.234375 1.390625q-0.4375 0.875 -0.4375 2.015625q0 1.140625 0.484375 2.015625q0.5 0.875 1.359375 1.390625q0.859375 0.5 1.984375 0.5q0.671875 0 1.34375 -0.234375q0.6875 -0.234375 1.09375 -0.59375q0.203125 -0.171875 0.46875 -0.171875q0.265625 -0.015625 0.4375 0.140625q0.25 0.21875 0.25 0.484375q0.015625 0.25 -0.203125 0.4375q-0.625 0.53125 -1.578125 0.875q-0.9375 0.34375 -1.8125 0.34375zm15.858734 0q-1.109375 0 -2.1875 -0.375q-1.078125 -0.375 -1.75 -1.125q-0.21875 -0.21875 -0.1875 -0.5q0.046875 -0.28125 0.296875 -0.484375q0.25 -0.1875 0.53125 -0.140625q0.28125 0.03125 0.46875 0.234375q0.453125 0.53125 1.1875 0.8125q0.734375 0.265625 1.640625 0.265625q1.375 0 1.984375 -0.46875q0.625 -0.484375 0.640625 -1.140625q0 -0.671875 -0.640625 -1.109375q-0.625 -0.453125 -2.078125 -0.6875q-1.890625 -0.296875 -2.765625 -1.046875q-0.875 -0.75 -0.875 -1.765625q0 -0.953125 0.5 -1.578125q0.5 -0.640625 1.34375 -0.953125q0.84375 -0.328125 1.84375 -0.328125q1.25 0 2.15625 0.4375q0.90625 0.421875 1.46875 1.140625q0.1875 0.25 0.140625 0.515625q-0.03125 0.25 -0.296875 0.421875q-0.21875 0.125 -0.515625 0.078125q-0.28125 -0.046875 -0.484375 -0.265625q-0.46875 -0.53125 -1.09375 -0.78125q-0.609375 -0.265625 -1.40625 -0.265625q-1.03125 0 -1.65625 0.421875q-0.609375 0.421875 -0.609375 1.0625q0 0.421875 0.234375 0.75q0.234375 0.3125 0.796875 0.5625q0.578125 0.234375 1.609375 0.390625q1.390625 0.234375 2.203125 0.671875q0.8125 0.4375 1.15625 1.03125q0.34375 0.578125 0.34375 1.265625q0 0.875 -0.515625 1.546875q-0.5 0.65625 -1.40625 1.03125q-0.90625 0.375 -2.078125 0.375zm10.4776 -0.09375q-0.984375 0 -1.765625 -0.46875q-0.765625 -0.46875 -1.21875 -1.28125q-0.453125 -0.8125 -0.453125 -1.84375l0 -9.125q0 -0.328125 0.1875 -0.53125q0.203125 -0.203125 0.53125 -0.203125q0.3125 0 0.515625 0.203125q0.203125 0.203125 0.203125 0.53125l0 9.125q0 0.9375 0.5625 1.546875q0.5625 0.609375 1.4375 0.609375l0.5 0q0.296875 0 0.484375 0.203125q0.1875 0.203125 0.1875 0.53125q0 0.3125 -0.21875 0.515625q-0.21875 0.1875 -0.5625 0.1875l-0.390625 0zm-4.640625 -8.578125q-0.28125 0 -0.46875 -0.171875q-0.1875 -0.1875 -0.1875 -0.453125q0 -0.28125 0.1875 -0.453125q0.1875 -0.171875 0.46875 -0.171875l4.75 0q0.28125 0 0.46875 0.171875q0.1875 0.171875 0.1875 0.453125q0 0.265625 -0.1875 0.453125q-0.1875 0.171875 -0.46875 0.171875l-4.75 0zm9.906067 13.015625q-0.15625 0 -0.34375 -0.078125q-0.625 -0.28125 -0.34375 -0.890625l6.015625 -13.28125q0.28125 -0.59375 0.890625 -0.34375q0.640625 0.265625 0.359375 0.890625l-6.046875 13.28125q-0.1875 0.421875 -0.53125 0.421875zm2.0625 -4.75q-0.28125 0.125 -0.53125 0.046875q-0.234375 -0.09375 -0.375 -0.375l-4.171875 -8.609375q-0.125 -0.28125 -0.03125 -0.515625q0.09375 -0.25 0.375 -0.390625q0.28125 -0.125 0.515625 -0.03125q0.25 0.078125 0.375 0.359375l4.09375 8.609375q0.140625 0.28125 0.078125 0.53125q-0.046875 0.234375 -0.328125 0.375zm8.598633 0.3125q-0.734375 0 -1.328125 -0.40625q-0.59375 -0.421875 -0.921875 -1.140625q-0.3125 -0.734375 -0.3125 -1.6875l0 -10.625q0 -0.3125 0.1875 -0.515625q0.203125 -0.203125 0.515625 -0.203125q0.3125 0 0.5 0.203125q0.203125 0.203125 0.203125 0.515625l0 10.625q0 0.8125 0.328125 1.3125q0.328125 0.5 0.828125 0.5l0.46875 0q0.28125 0 0.453125 0.203125q0.171875 0.1875 0.171875 0.515625q0 0.3125 -0.234375 0.515625q-0.234375 0.1875 -0.609375 0.1875l-0.25 0zm7.13855 0.09375q-1.515625 0 -2.6875 -0.65625q-1.15625 -0.671875 -1.828125 -1.84375q-0.65625 -1.171875 -0.65625 -2.6875q0 -1.53125 0.625 -2.6875q0.625 -1.171875 1.71875 -1.84375q1.109375 -0.671875 2.546875 -0.671875q1.40625 0 2.453125 0.640625q1.0625 0.640625 1.640625 1.78125q0.578125 1.140625 0.578125 2.59375q0 0.296875 -0.1875 0.484375q-0.1875 0.171875 -0.484375 0.171875l-7.921875 0l0 -1.203125l8.078125 0l-0.796875 0.578125q0.015625 -1.078125 -0.40625 -1.9375q-0.40625 -0.859375 -1.15625 -1.34375q-0.75 -0.484375 -1.796875 -0.484375q-1.0625 0 -1.875 0.515625q-0.796875 0.5 -1.234375 1.390625q-0.4375 0.875 -0.4375 2.015625q0 1.140625 0.484375 2.015625q0.5 0.875 1.359375 1.390625q0.859375 0.5 1.984375 0.5q0.671875 0 1.34375 -0.234375q0.6875 -0.234375 1.09375 -0.59375q0.203125 -0.171875 0.46875 -0.171875q0.265625 -0.015625 0.4375 0.140625q0.25 0.21875 0.25 0.484375q0.015625 0.25 -0.203125 0.4375q-0.625 0.53125 -1.578125 0.875q-0.9375 0.34375 -1.8125 0.34375zm16.28061 -0.09375q-0.984375 0 -1.765625 -0.46875q-0.765625 -0.46875 -1.21875 -1.28125q-0.453125 -0.8125 -0.453125 -1.84375l0 -9.125q0 -0.328125 0.1875 -0.53125q0.203125 -0.203125 0.53125 -0.203125q0.3125 0 0.515625 0.203125q0.203125 0.203125 0.203125 0.53125l0 9.125q0 0.9375 0.5625 1.546875q0.5625 0.609375 1.4375 0.609375l0.5 0q0.296875 0 0.484375 0.203125q0.1875 0.203125 0.1875 0.53125q0 0.3125 -0.21875 0.515625q-0.21875 0.1875 -0.5625 0.1875l-0.390625 0zm-4.640625 -8.578125q-0.28125 0 -0.46875 -0.171875q-0.1875 -0.1875 -0.1875 -0.453125q0 -0.28125 0.1875 -0.453125q0.1875 -0.171875 0.46875 -0.171875l4.75 0q0.28125 0 0.46875 0.171875q0.1875 0.171875 0.1875 0.453125q0 0.265625 -0.1875 0.453125q-0.1875 0.171875 -0.46875 0.171875l-4.75 0zm8.749817 2.296875q0.046875 -1.15625 0.59375 -2.0625q0.5625 -0.921875 1.4375 -1.4375q0.890625 -0.53125 1.96875 -0.53125q0.859375 0 1.328125 0.25q0.46875 0.234375 0.359375 0.703125q-0.078125 0.28125 -0.265625 0.375q-0.171875 0.078125 -0.421875 0.0625q-0.25 -0.015625 -0.5625 -0.03125q-1.046875 -0.09375 -1.859375 0.21875q-0.8125 0.296875 -1.296875 0.9375q-0.46875 0.640625 -0.46875 1.515625l-0.8125 0zm0.109375 6.28125q-0.34375 0 -0.53125 -0.1875q-0.1875 -0.1875 -0.1875 -0.515625l0 -8.796875q0 -0.328125 0.1875 -0.515625q0.1875 -0.1875 0.53125 -0.1875q0.328125 0 0.515625 0.1875q0.1875 0.1875 0.1875 0.515625l0 8.796875q0 0.328125 -0.1875 0.515625q-0.1875 0.1875 -0.515625 0.1875zm11.579132 0.09375q-1.4375 0 -2.578125 -0.671875q-1.125 -0.6875 -1.796875 -1.859375q-0.65625 -1.1875 -0.65625 -2.65625q0 -1.484375 0.671875 -2.65625q0.6875 -1.1875 1.859375 -1.859375q1.171875 -0.6875 2.65625 -0.6875q1.46875 0 2.625 0.6875q1.171875 0.671875 1.859375 1.859375q0.6875 1.171875 0.703125 2.65625l-0.578125 0.453125q0 1.34375 -0.625 2.421875q-0.625 1.0625 -1.703125 1.6875q-1.078125 0.625 -2.4375 0.625zm0.15625 -1.3125q1.078125 0 1.921875 -0.5q0.859375 -0.5 1.34375 -1.390625q0.5 -0.890625 0.5 -1.984375q0 -1.125 -0.5 -2.0q-0.484375 -0.875 -1.34375 -1.390625q-0.84375 -0.515625 -1.921875 -0.515625q-1.0625 0 -1.921875 0.515625q-0.859375 0.515625 -1.375 1.390625q-0.5 0.875 -0.5 2.0q0 1.09375 0.5 1.984375q0.515625 0.890625 1.375 1.390625q0.859375 0.5 1.921875 0.5zm4.453125 1.21875q-0.3125 0 -0.515625 -0.1875q-0.203125 -0.203125 -0.203125 -0.515625l0 -3.203125l0.34375 -1.46875l1.109375 0.28125l0 4.390625q0 0.3125 -0.21875 0.515625q-0.203125 0.1875 -0.515625 0.1875zm12.270905 0q-0.3125 0 -0.515625 -0.203125q-0.203125 -0.203125 -0.203125 -0.5l0 -4.859375q0 -1.15625 -0.4375 -1.890625q-0.4375 -0.75 -1.203125 -1.125q-0.75 -0.375 -1.703125 -0.375q-0.90625 0 -1.65625 0.359375q-0.734375 0.34375 -1.171875 0.96875q-0.421875 0.609375 -0.421875 1.390625l-1.015625 0q0.03125 -1.171875 0.625 -2.09375q0.609375 -0.921875 1.59375 -1.453125q0.984375 -0.53125 2.203125 -0.53125q1.3125 0 2.359375 0.546875q1.046875 0.546875 1.65625 1.609375q0.609375 1.0625 0.609375 2.59375l0 4.859375q0 0.296875 -0.203125 0.5q-0.203125 0.203125 -0.515625 0.203125zm-8.015625 0q-0.328125 0 -0.53125 -0.1875q-0.203125 -0.203125 -0.203125 -0.515625l0 -8.78125q0 -0.328125 0.203125 -0.515625q0.203125 -0.203125 0.53125 -0.203125q0.3125 0 0.5 0.203125q0.203125 0.1875 0.203125 0.515625l0 8.78125q0 0.3125 -0.203125 0.515625q-0.1875 0.1875 -0.5 0.1875zm15.47403 0.09375q-1.109375 0 -2.1875 -0.375q-1.078125 -0.375 -1.75 -1.125q-0.21875 -0.21875 -0.1875 -0.5q0.046875 -0.28125 0.296875 -0.484375q0.25 -0.1875 0.53125 -0.140625q0.28125 0.03125 0.46875 0.234375q0.453125 0.53125 1.1875 0.8125q0.734375 0.265625 1.640625 0.265625q1.375 0 1.984375 -0.46875q0.625 -0.484375 0.640625 -1.140625q0 -0.671875 -0.640625 -1.109375q-0.625 -0.453125 -2.078125 -0.6875q-1.890625 -0.296875 -2.765625 -1.046875q-0.875 -0.75 -0.875 -1.765625q0 -0.953125 0.5 -1.578125q0.5 -0.640625 1.34375 -0.953125q0.84375 -0.328125 1.84375 -0.328125q1.25 0 2.15625 0.4375q0.90625 0.421875 1.46875 1.140625q0.1875 0.25 0.140625 0.515625q-0.03125 0.25 -0.296875 0.421875q-0.21875 0.125 -0.515625 0.078125q-0.28125 -0.046875 -0.484375 -0.265625q-0.46875 -0.53125 -1.09375 -0.78125q-0.609375 -0.265625 -1.40625 -0.265625q-1.03125 0 -1.65625 0.421875q-0.609375 0.421875 -0.609375 1.0625q0 0.421875 0.234375 0.75q0.234375 0.3125 0.796875 0.5625q0.578125 0.234375 1.609375 0.390625q1.390625 0.234375 2.203125 0.671875q0.8125 0.4375 1.15625 1.03125q0.34375 0.578125 0.34375 1.265625q0 0.875 -0.515625 1.546875q-0.5 0.65625 -1.40625 1.03125q-0.90625 0.375 -2.078125 0.375zm7.75885 -0.09375q-0.28125 0 -0.5 -0.1875q-0.203125 -0.203125 -0.203125 -0.546875l0 -9.453125q0 -1.3125 0.453125 -2.296875q0.453125 -0.984375 1.328125 -1.53125q0.875 -0.5625 2.140625 -0.5625q0.328125 0 0.53125 0.1875q0.203125 0.1875 0.203125 0.46875q0 0.28125 -0.203125 0.46875q-0.203125 0.1875 -0.53125 0.1875q-0.84375 0 -1.390625 0.390625q-0.546875 0.375 -0.828125 1.0625q-0.265625 0.671875 -0.265625 1.546875l0 9.53125q0 0.34375 -0.203125 0.546875q-0.1875 0.1875 -0.53125 0.1875zm-1.890625 -8.578125q-0.296875 0 -0.484375 -0.171875q-0.171875 -0.1875 -0.171875 -0.453125q0 -0.28125 0.171875 -0.453125q0.1875 -0.171875 0.484375 -0.171875l4.875 0q0.296875 0 0.46875 0.171875q0.171875 0.171875 0.171875 0.453125q0 0.265625 -0.171875 0.453125q-0.171875 0.171875 -0.46875 0.171875l-4.875 0zm11.704834 8.671875q-1.515625 0 -2.6875 -0.65625q-1.15625 -0.671875 -1.828125 -1.84375q-0.65625 -1.171875 -0.65625 -2.6875q0 -1.53125 0.625 -2.6875q0.625 -1.171875 1.71875 -1.84375q1.109375 -0.671875 2.546875 -0.671875q1.40625 0 2.453125 0.640625q1.0625 0.640625 1.640625 1.78125q0.578125 1.140625 0.578125 2.59375q0 0.296875 -0.1875 0.484375q-0.1875 0.171875 -0.484375 0.171875l-7.921875 0l0 -1.203125l8.078125 0l-0.796875 0.578125q0.015625 -1.078125 -0.40625 -1.9375q-0.40625 -0.859375 -1.15625 -1.34375q-0.75 -0.484375 -1.796875 -0.484375q-1.0625 0 -1.875 0.515625q-0.796875 0.5 -1.234375 1.390625q-0.4375 0.875 -0.4375 2.015625q0 1.140625 0.484375 2.015625q0.5 0.875 1.359375 1.390625q0.859375 0.5 1.984375 0.5q0.671875 0 1.34375 -0.234375q0.6875 -0.234375 1.09375 -0.59375q0.203125 -0.171875 0.46875 -0.171875q0.265625 -0.015625 0.4375 0.140625q0.25 0.21875 0.25 0.484375q0.015625 0.25 -0.203125 0.4375q-0.625 0.53125 -1.578125 0.875q-0.9375 0.34375 -1.8125 0.34375zm7.423706 -6.375q0.046875 -1.15625 0.59375 -2.0625q0.5625 -0.921875 1.4375 -1.4375q0.890625 -0.53125 1.96875 -0.53125q0.859375 0 1.328125 0.25q0.46875 0.234375 0.359375 0.703125q-0.078125 0.28125 -0.265625 0.375q-0.171875 0.078125 -0.421875 0.0625q-0.25 -0.015625 -0.5625 -0.03125q-1.046875 -0.09375 -1.859375 0.21875q-0.8125 0.296875 -1.296875 0.9375q-0.46875 0.640625 -0.46875 1.515625l-0.8125 0zm0.109375 6.28125q-0.34375 0 -0.53125 -0.1875q-0.1875 -0.1875 -0.1875 -0.515625l0 -8.796875q0 -0.328125 0.1875 -0.515625q0.1875 -0.1875 0.53125 -0.1875q0.328125 0 0.515625 0.1875q0.1875 0.1875 0.1875 0.515625l0 8.796875q0 0.328125 -0.1875 0.515625q-0.1875 0.1875 -0.515625 0.1875z" fill-rule="nonzero"/><path fill="#000000" fill-opacity="0.0" d="m126.58793 92.24235l355.68506 0l0 42.01574l-355.68506 0z" fill-rule="evenodd"/><path fill="#000000" d="m143.99417 120.15772q-1.5 0 -2.828125 -0.578125q-1.3125 -0.578125 -2.3125 -1.609375q-0.984375 -1.046875 -1.546875 -2.390625q-0.5625 -1.359375 -0.5625 -2.90625q0 -1.53125 0.546875 -2.875q0.546875 -1.359375 1.546875 -2.375q1.0 -1.03125 2.3125 -1.609375q1.328125 -0.59375 2.84375 -0.59375q1.34375 0 2.4375 0.390625q1.109375 0.390625 2.140625 1.25q0.171875 0.125 0.1875 0.3125q0.03125 0.171875 -0.046875 0.328125q-0.0625 0.15625 -0.21875 0.234375q-0.03125 0.140625 -0.1875 0.21875q-0.140625 0.078125 -0.34375 0.0625q-0.1875 -0.03125 -0.375 -0.171875q-0.734375 -0.640625 -1.59375 -0.9375q-0.859375 -0.3125 -2.0 -0.3125q-1.203125 0 -2.265625 0.484375q-1.046875 0.484375 -1.859375 1.328125q-0.796875 0.828125 -1.25 1.9375q-0.453125 1.09375 -0.453125 2.328125q0 1.265625 0.453125 2.375q0.453125 1.09375 1.25 1.9375q0.8125 0.84375 1.859375 1.328125q1.0625 0.46875 2.265625 0.46875q1.03125 0 1.9375 -0.328125q0.921875 -0.34375 1.75 -0.984375q0.21875 -0.1875 0.46875 -0.140625q0.25 0.03125 0.4375 0.21875q0.1875 0.1875 0.1875 0.484375q0 0.140625 -0.046875 0.265625q-0.046875 0.125 -0.15625 0.25q-0.953125 0.875 -2.125 1.25q-1.171875 0.359375 -2.453125 0.359375zm11.503204 -0.09375q-1.5 0 -2.671875 -0.671875q-1.171875 -0.671875 -1.84375 -1.84375q-0.671875 -1.171875 -0.671875 -2.671875q0 -1.515625 0.671875 -2.6875q0.671875 -1.171875 1.84375 -1.84375q1.171875 -0.671875 2.671875 -0.671875q1.484375 0 2.65625 0.671875q1.171875 0.671875 1.84375 1.84375q0.671875 1.171875 0.6875 2.6875q0 1.5 -0.6875 2.671875q-0.671875 1.171875 -1.84375 1.84375q-1.171875 0.671875 -2.65625 0.671875zm0 -1.3125q1.078125 0 1.9375 -0.5q0.859375 -0.5 1.34375 -1.375q0.484375 -0.875 0.484375 -2.0q0 -1.125 -0.484375 -2.0q-0.484375 -0.890625 -1.34375 -1.390625q-0.859375 -0.515625 -1.9375 -0.515625q-1.078125 0 -1.9375 0.515625q-0.859375 0.5 -1.359375 1.390625q-0.5 0.875 -0.5 2.0q0 1.125 0.5 2.0q0.5 0.875 1.359375 1.375q0.859375 0.5 1.9375 0.5zm8.708405 5.578125q-0.328125 0 -0.53125 -0.203125q-0.203125 -0.1875 -0.203125 -0.515625l0 -8.8125q0.03125 -1.453125 0.703125 -2.609375q0.6875 -1.171875 1.84375 -1.84375q1.171875 -0.671875 2.625 -0.671875q1.5 0 2.671875 0.6875q1.171875 0.671875 1.84375 1.859375q0.6875 1.171875 0.6875 2.65625q0 1.46875 -0.65625 2.65625q-0.65625 1.171875 -1.796875 1.859375q-1.140625 0.671875 -2.578125 0.671875q-1.25 0 -2.265625 -0.53125q-1.015625 -0.53125 -1.640625 -1.40625l0 5.484375q0 0.328125 -0.203125 0.515625q-0.1875 0.203125 -0.5 0.203125zm4.4375 -5.578125q1.078125 0 1.9375 -0.5q0.859375 -0.5 1.359375 -1.390625q0.5 -0.890625 0.5 -1.984375q0 -1.125 -0.5 -2.0q-0.5 -0.875 -1.359375 -1.390625q-0.859375 -0.515625 -1.9375 -0.515625q-1.0625 0 -1.921875 0.515625q-0.859375 0.515625 -1.34375 1.390625q-0.484375 0.875 -0.484375 2.0q0 1.09375 0.484375 1.984375q0.484375 0.890625 1.34375 1.390625q0.859375 0.5 1.921875 0.5zm9.049347 1.21875q-0.328125 0 -0.53125 -0.1875q-0.1875 -0.203125 -0.1875 -0.546875l0 -8.75q0 -0.328125 0.1875 -0.515625q0.203125 -0.203125 0.53125 -0.203125q0.3125 0 0.515625 0.203125q0.203125 0.1875 0.203125 0.515625l0 8.75q0 0.34375 -0.203125 0.546875q-0.203125 0.1875 -0.515625 0.1875zm-0.015625 -12.140625q-0.421875 0 -0.71875 -0.296875q-0.296875 -0.3125 -0.296875 -0.734375q0 -0.46875 0.3125 -0.734375q0.3125 -0.265625 0.71875 -0.265625q0.390625 0 0.6875 0.265625q0.3125 0.265625 0.3125 0.734375q0 0.421875 -0.296875 0.734375q-0.296875 0.296875 -0.71875 0.296875zm6.5791626 12.140625q-0.734375 0 -1.328125 -0.40625q-0.59375 -0.421875 -0.921875 -1.140625q-0.3125 -0.734375 -0.3125 -1.6875l0 -10.625q0 -0.3125 0.1875 -0.515625q0.203125 -0.203125 0.515625 -0.203125q0.3125 0 0.5 0.203125q0.203125 0.203125 0.203125 0.515625l0 10.625q0 0.8125 0.328125 1.3125q0.328125 0.5 0.828125 0.5l0.46875 0q0.28125 0 0.453125 0.203125q0.171875 0.1875 0.171875 0.515625q0 0.3125 -0.234375 0.515625q-0.234375 0.1875 -0.609375 0.1875l-0.25 0zm7.15419 0.09375q-1.5 0 -2.671875 -0.671875q-1.171875 -0.671875 -1.84375 -1.84375q-0.671875 -1.171875 -0.671875 -2.671875q0 -1.515625 0.671875 -2.6875q0.671875 -1.171875 1.84375 -1.84375q1.171875 -0.671875 2.671875 -0.671875q1.484375 0 2.65625 0.671875q1.171875 0.671875 1.84375 1.84375q0.671875 1.171875 0.6875 2.6875q0 1.5 -0.6875 2.671875q-0.671875 1.171875 -1.84375 1.84375q-1.171875 0.671875 -2.65625 0.671875zm0 -1.3125q1.078125 0 1.9375 -0.5q0.859375 -0.5 1.34375 -1.375q0.484375 -0.875 0.484375 -2.0q0 -1.125 -0.484375 -2.0q-0.484375 -0.890625 -1.34375 -1.390625q-0.859375 -0.515625 -1.9375 -0.515625q-1.078125 0 -1.9375 0.515625q-0.859375 0.5 -1.359375 1.390625q-0.5 0.875 -0.5 2.0q0 1.125 0.5 2.0q0.5 0.875 1.359375 1.375q0.859375 0.5 1.9375 0.5zm11.97403 1.21875q-0.984375 0 -1.765625 -0.46875q-0.765625 -0.46875 -1.21875 -1.28125q-0.453125 -0.8125 -0.453125 -1.84375l0 -9.125q0 -0.328125 0.1875 -0.53125q0.203125 -0.203125 0.53125 -0.203125q0.3125 0 0.515625 0.203125q0.203125 0.203125 0.203125 0.53125l0 9.125q0 0.9375 0.5625 1.546875q0.5625 0.609375 1.4375 0.609375l0.5 0q0.296875 0 0.484375 0.203125q0.1875 0.203125 0.1875 0.53125q0 0.3125 -0.21875 0.515625q-0.21875 0.1875 -0.5625 0.1875l-0.390625 0zm-4.640625 -8.578125q-0.28125 0 -0.46875 -0.171875q-0.1875 -0.1875 -0.1875 -0.453125q0 -0.28125 0.1875 -0.453125q0.1875 -0.171875 0.46875 -0.171875l4.75 0q0.28125 0 0.46875 0.171875q0.1875 0.171875 0.1875 0.453125q0 0.265625 -0.1875 0.453125q-0.1875 0.171875 -0.46875 0.171875l-4.75 0zm7.984192 11.59375q-0.1875 0 -0.296875 -0.109375q-0.09375 -0.09375 -0.09375 -0.25q0 -0.28125 0.15625 -0.515625q0.171875 -0.234375 0.34375 -0.5q0.1875 -0.265625 0.1875 -0.640625q0 -0.328125 -0.140625 -0.5625q-0.125 -0.21875 -0.3125 -0.390625q-0.171875 -0.171875 -0.296875 -0.390625q-0.125 -0.21875 -0.125 -0.53125q0 -0.46875 0.296875 -0.75q0.3125 -0.28125 0.78125 -0.28125q0.5625 0 0.90625 0.4375q0.359375 0.4375 0.359375 1.21875q0 0.53125 -0.15625 1.109375q-0.140625 0.578125 -0.40625 1.0625q-0.25 0.5 -0.578125 0.796875q-0.3125 0.296875 -0.625 0.296875zm16.573212 -2.828125q-1.5 0 -2.828125 -0.578125q-1.3125 -0.578125 -2.3125 -1.609375q-0.984375 -1.046875 -1.546875 -2.390625q-0.5625 -1.359375 -0.5625 -2.90625q0 -1.53125 0.546875 -2.875q0.546875 -1.359375 1.546875 -2.375q1.0 -1.03125 2.3125 -1.609375q1.328125 -0.59375 2.84375 -0.59375q1.34375 0 2.4375 0.390625q1.109375 0.390625 2.140625 1.25q0.171875 0.125 0.1875 0.3125q0.03125 0.171875 -0.046875 0.328125q-0.0625 0.15625 -0.21875 0.234375q-0.03125 0.140625 -0.1875 0.21875q-0.140625 0.078125 -0.34375 0.0625q-0.1875 -0.03125 -0.375 -0.171875q-0.734375 -0.640625 -1.59375 -0.9375q-0.859375 -0.3125 -2.0 -0.3125q-1.203125 0 -2.265625 0.484375q-1.046875 0.484375 -1.859375 1.328125q-0.796875 0.828125 -1.25 1.9375q-0.453125 1.09375 -0.453125 2.328125q0 1.265625 0.453125 2.375q0.453125 1.09375 1.25 1.9375q0.8125 0.84375 1.859375 1.328125q1.0625 0.46875 2.265625 0.46875q1.03125 0 1.9375 -0.328125q0.921875 -0.34375 1.75 -0.984375q0.21875 -0.1875 0.46875 -0.140625q0.25 0.03125 0.4375 0.21875q0.1875 0.1875 0.1875 0.484375q0 0.140625 -0.046875 0.265625q-0.046875 0.125 -0.15625 0.25q-0.953125 0.875 -2.125 1.25q-1.171875 0.359375 -2.453125 0.359375zm12.046753 -0.078125q-1.328125 0 -2.375 -0.546875q-1.046875 -0.546875 -1.65625 -1.609375q-0.59375 -1.0625 -0.59375 -2.59375l0 -4.859375q0 -0.296875 0.203125 -0.5q0.203125 -0.203125 0.5 -0.203125q0.3125 0 0.515625 0.203125q0.203125 0.203125 0.203125 0.5l0 4.859375q0 1.15625 0.4375 1.90625q0.453125 0.734375 1.203125 1.109375q0.75 0.375 1.703125 0.375q0.921875 0 1.65625 -0.34375q0.734375 -0.359375 1.15625 -0.96875q0.4375 -0.625 0.4375 -1.40625l1.03125 0q-0.0625 1.171875 -0.65625 2.09375q-0.578125 0.921875 -1.578125 1.453125q-0.984375 0.53125 -2.1875 0.53125zm4.09375 -0.109375q-0.3125 0 -0.515625 -0.1875q-0.1875 -0.203125 -0.1875 -0.546875l0 -8.765625q0 -0.3125 0.1875 -0.5q0.203125 -0.203125 0.515625 -0.203125q0.328125 0 0.53125 0.203125q0.203125 0.1875 0.203125 0.5l0 8.765625q0 0.34375 -0.203125 0.546875q-0.203125 0.1875 -0.53125 0.1875zm4.6927795 -6.28125q0.046875 -1.15625 0.59375 -2.0625q0.5625 -0.921875 1.4375 -1.4375q0.890625 -0.53125 1.96875 -0.53125q0.859375 0 1.328125 0.25q0.46875 0.234375 0.359375 0.703125q-0.078125 0.28125 -0.265625 0.375q-0.171875 0.078125 -0.421875 0.0625q-0.25 -0.015625 -0.5625 -0.03125q-1.046875 -0.09375 -1.859375 0.21875q-0.8125 0.296875 -1.296875 0.9375q-0.46875 0.640625 -0.46875 1.515625l-0.8125 0zm0.109375 6.28125q-0.34375 0 -0.53125 -0.1875q-0.1875 -0.1875 -0.1875 -0.515625l0 -8.796875q0 -0.328125 0.1875 -0.515625q0.1875 -0.1875 0.53125 -0.1875q0.328125 0 0.515625 0.1875q0.1875 0.1875 0.1875 0.515625l0 8.796875q0 0.328125 -0.1875 0.515625q-0.1875 0.1875 -0.515625 0.1875zm11.403946 0.09375q-1.109375 0 -2.1875 -0.375q-1.078125 -0.375 -1.75 -1.125q-0.21875 -0.21875 -0.1875 -0.5q0.046875 -0.28125 0.296875 -0.484375q0.25 -0.1875 0.53125 -0.140625q0.28125 0.03125 0.46875 0.234375q0.453125 0.53125 1.1875 0.8125q0.734375 0.265625 1.640625 0.265625q1.375 0 1.984375 -0.46875q0.625 -0.484375 0.640625 -1.140625q0 -0.671875 -0.640625 -1.109375q-0.625 -0.453125 -2.078125 -0.6875q-1.890625 -0.296875 -2.765625 -1.046875q-0.875 -0.75 -0.875 -1.765625q0 -0.953125 0.5 -1.578125q0.5 -0.640625 1.34375 -0.953125q0.84375 -0.328125 1.84375 -0.328125q1.25 0 2.15625 0.4375q0.90625 0.421875 1.46875 1.140625q0.1875 0.25 0.140625 0.515625q-0.03125 0.25 -0.296875 0.421875q-0.21875 0.125 -0.515625 0.078125q-0.28125 -0.046875 -0.484375 -0.265625q-0.46875 -0.53125 -1.09375 -0.78125q-0.609375 -0.265625 -1.40625 -0.265625q-1.03125 0 -1.65625 0.421875q-0.609375 0.421875 -0.609375 1.0625q0 0.421875 0.234375 0.75q0.234375 0.3125 0.796875 0.5625q0.578125 0.234375 1.609375 0.390625q1.390625 0.234375 2.203125 0.671875q0.8125 0.4375 1.15625 1.03125q0.34375 0.578125 0.34375 1.265625q0 0.875 -0.515625 1.546875q-0.5 0.65625 -1.40625 1.03125q-0.90625 0.375 -2.078125 0.375zm11.13385 0q-1.5 0 -2.671875 -0.671875q-1.171875 -0.671875 -1.84375 -1.84375q-0.671875 -1.171875 -0.671875 -2.671875q0 -1.515625 0.671875 -2.6875q0.671875 -1.171875 1.84375 -1.84375q1.171875 -0.671875 2.671875 -0.671875q1.484375 0 2.65625 0.671875q1.171875 0.671875 1.84375 1.84375q0.671875 1.171875 0.6875 2.6875q0 1.5 -0.6875 2.671875q-0.671875 1.171875 -1.84375 1.84375q-1.171875 0.671875 -2.65625 0.671875zm0 -1.3125q1.078125 0 1.9375 -0.5q0.859375 -0.5 1.34375 -1.375q0.484375 -0.875 0.484375 -2.0q0 -1.125 -0.484375 -2.0q-0.484375 -0.890625 -1.34375 -1.390625q-0.859375 -0.515625 -1.9375 -0.515625q-1.078125 0 -1.9375 0.515625q-0.859375 0.5 -1.359375 1.390625q-0.5 0.875 -0.5 2.0q0 1.125 0.5 2.0q0.5 0.875 1.359375 1.375q0.859375 0.5 1.9375 0.5zm8.583405 -5.0625q0.046875 -1.15625 0.59375 -2.0625q0.5625 -0.921875 1.4375 -1.4375q0.890625 -0.53125 1.96875 -0.53125q0.859375 0 1.328125 0.25q0.46875 0.234375 0.359375 0.703125q-0.078125 0.28125 -0.265625 0.375q-0.171875 0.078125 -0.421875 0.0625q-0.25 -0.015625 -0.5625 -0.03125q-1.046875 -0.09375 -1.859375 0.21875q-0.8125 0.296875 -1.296875 0.9375q-0.46875 0.640625 -0.46875 1.515625l-0.8125 0zm0.109375 6.28125q-0.34375 0 -0.53125 -0.1875q-0.1875 -0.1875 -0.1875 -0.515625l0 -8.796875q0 -0.328125 0.1875 -0.515625q0.1875 -0.1875 0.53125 -0.1875q0.328125 0 0.515625 0.1875q0.1875 0.1875 0.1875 0.515625l0 8.796875q0 0.328125 -0.1875 0.515625q-0.1875 0.1875 -0.515625 0.1875zm4.6829224 3.015625q-0.1875 0 -0.296875 -0.109375q-0.09375 -0.09375 -0.09375 -0.25q0 -0.28125 0.15625 -0.515625q0.171875 -0.234375 0.34375 -0.5q0.1875 -0.265625 0.1875 -0.640625q0 -0.328125 -0.140625 -0.5625q-0.125 -0.21875 -0.3125 -0.390625q-0.171875 -0.171875 -0.296875 -0.390625q-0.125 -0.21875 -0.125 -0.53125q0 -0.46875 0.296875 -0.75q0.3125 -0.28125 0.78125 -0.28125q0.5625 0 0.90625 0.4375q0.359375 0.4375 0.359375 1.21875q0 0.53125 -0.15625 1.109375q-0.140625 0.578125 -0.40625 1.0625q-0.25 0.5 -0.578125 0.796875q-0.3125 0.296875 -0.625 0.296875zm10.760712 -3.015625q-0.3125 0 -0.53125 -0.203125q-0.203125 -0.203125 -0.203125 -0.53125l0 -13.109375q0 -0.3125 0.203125 -0.515625q0.21875 -0.21875 0.53125 -0.21875l3.734375 0q1.375 0 2.4375 0.609375q1.0625 0.609375 1.65625 1.671875q0.609375 1.0625 0.609375 2.46875q0 1.359375 -0.609375 2.421875q-0.59375 1.046875 -1.65625 1.65625q-1.0625 0.59375 -2.4375 0.59375l-3.0 0l0 4.421875q0 0.328125 -0.21875 0.53125q-0.203125 0.203125 -0.515625 0.203125zm0.734375 -6.546875l3.0 0q0.953125 0 1.6875 -0.421875q0.75 -0.421875 1.171875 -1.15625q0.421875 -0.75 0.421875 -1.703125q0 -1.0 -0.421875 -1.734375q-0.421875 -0.75 -1.171875 -1.171875q-0.734375 -0.4375 -1.6875 -0.4375l-3.0 0l0 6.625zm14.028656 6.640625q-1.515625 0 -2.6875 -0.65625q-1.15625 -0.671875 -1.828125 -1.84375q-0.65625 -1.171875 -0.65625 -2.6875q0 -1.53125 0.625 -2.6875q0.625 -1.171875 1.71875 -1.84375q1.109375 -0.671875 2.546875 -0.671875q1.40625 0 2.453125 0.640625q1.0625 0.640625 1.640625 1.78125q0.578125 1.140625 0.578125 2.59375q0 0.296875 -0.1875 0.484375q-0.1875 0.171875 -0.484375 0.171875l-7.921875 0l0 -1.203125l8.078125 0l-0.796875 0.578125q0.015625 -1.078125 -0.40625 -1.9375q-0.40625 -0.859375 -1.15625 -1.34375q-0.75 -0.484375 -1.796875 -0.484375q-1.0625 0 -1.875 0.515625q-0.796875 0.5 -1.234375 1.390625q-0.4375 0.875 -0.4375 2.015625q0 1.140625 0.484375 2.015625q0.5 0.875 1.359375 1.390625q0.859375 0.5 1.984375 0.5q0.671875 0 1.34375 -0.234375q0.6875 -0.234375 1.09375 -0.59375q0.203125 -0.171875 0.46875 -0.171875q0.265625 -0.015625 0.4375 0.140625q0.25 0.21875 0.25 0.484375q0.015625 0.25 -0.203125 0.4375q-0.625 0.53125 -1.578125 0.875q-0.9375 0.34375 -1.8125 0.34375zm7.423706 -6.375q0.046875 -1.15625 0.59375 -2.0625q0.5625 -0.921875 1.4375 -1.4375q0.890625 -0.53125 1.96875 -0.53125q0.859375 0 1.328125 0.25q0.46875 0.234375 0.359375 0.703125q-0.078125 0.28125 -0.265625 0.375q-0.171875 0.078125 -0.421875 0.0625q-0.25 -0.015625 -0.5625 -0.03125q-1.046875 -0.09375 -1.859375 0.21875q-0.8125 0.296875 -1.296875 0.9375q-0.46875 0.640625 -0.46875 1.515625l-0.8125 0zm0.109375 6.28125q-0.34375 0 -0.53125 -0.1875q-0.1875 -0.1875 -0.1875 -0.515625l0 -8.796875q0 -0.328125 0.1875 -0.515625q0.1875 -0.1875 0.53125 -0.1875q0.328125 0 0.515625 0.1875q0.1875 0.1875 0.1875 0.515625l0 8.796875q0 0.328125 -0.1875 0.515625q-0.1875 0.1875 -0.515625 0.1875zm8.560181 4.359375q-0.328125 0 -0.53125 -0.203125q-0.203125 -0.1875 -0.203125 -0.515625l0 -8.8125q0.03125 -1.453125 0.703125 -2.609375q0.6875 -1.171875 1.84375 -1.84375q1.171875 -0.671875 2.625 -0.671875q1.5 0 2.671875 0.6875q1.171875 0.671875 1.84375 1.859375q0.6875 1.171875 0.6875 2.65625q0 1.46875 -0.65625 2.65625q-0.65625 1.171875 -1.796875 1.859375q-1.140625 0.671875 -2.578125 0.671875q-1.25 0 -2.265625 -0.53125q-1.015625 -0.53125 -1.640625 -1.40625l0 5.484375q0 0.328125 -0.203125 0.515625q-0.1875 0.203125 -0.5 0.203125zm4.4375 -5.578125q1.078125 0 1.9375 -0.5q0.859375 -0.5 1.359375 -1.390625q0.5 -0.890625 0.5 -1.984375q0 -1.125 -0.5 -2.0q-0.5 -0.875 -1.359375 -1.390625q-0.859375 -0.515625 -1.9375 -0.515625q-1.0625 0 -1.921875 0.515625q-0.859375 0.515625 -1.34375 1.390625q-0.484375 0.875 -0.484375 2.0q0 1.09375 0.484375 1.984375q0.484375 0.890625 1.34375 1.390625q0.859375 0.5 1.921875 0.5zm10.221222 1.21875q-0.734375 0 -1.328125 -0.40625q-0.59375 -0.421875 -0.921875 -1.140625q-0.3125 -0.734375 -0.3125 -1.6875l0 -10.625q0 -0.3125 0.1875 -0.515625q0.203125 -0.203125 0.515625 -0.203125q0.3125 0 0.5 0.203125q0.203125 0.203125 0.203125 0.515625l0 10.625q0 0.8125 0.328125 1.3125q0.328125 0.5 0.828125 0.5l0.46875 0q0.28125 0 0.453125 0.203125q0.171875 0.1875 0.171875 0.515625q0 0.3125 -0.234375 0.515625q-0.234375 0.1875 -0.609375 0.1875l-0.25 0zm7.1385803 0.09375q-1.515625 0 -2.6875 -0.65625q-1.15625 -0.671875 -1.828125 -1.84375q-0.65625 -1.171875 -0.65625 -2.6875q0 -1.53125 0.625 -2.6875q0.625 -1.171875 1.71875 -1.84375q1.109375 -0.671875 2.546875 -0.671875q1.40625 0 2.453125 0.640625q1.0625 0.640625 1.640625 1.78125q0.578125 1.140625 0.578125 2.59375q0 0.296875 -0.1875 0.484375q-0.1875 0.171875 -0.484375 0.171875l-7.921875 0l0 -1.203125l8.078125 0l-0.796875 0.578125q0.015625 -1.078125 -0.40625 -1.9375q-0.40625 -0.859375 -1.15625 -1.34375q-0.75 -0.484375 -1.796875 -0.484375q-1.0625 0 -1.875 0.515625q-0.796875 0.5 -1.234375 1.390625q-0.4375 0.875 -0.4375 2.015625q0 1.140625 0.484375 2.015625q0.5 0.875 1.359375 1.390625q0.859375 0.5 1.984375 0.5q0.671875 0 1.34375 -0.234375q0.6875 -0.234375 1.09375 -0.59375q0.203125 -0.171875 0.46875 -0.171875q0.265625 -0.015625 0.4375 0.140625q0.25 0.21875 0.25 0.484375q0.015625 0.25 -0.203125 0.4375q-0.625 0.53125 -1.578125 0.875q-0.9375 0.34375 -1.8125 0.34375zm13.394928 -0.09375q-0.234375 0 -0.375 -0.078125q-0.140625 -0.078125 -0.28125 -0.25l-3.234375 -4.109375l-0.5625 -0.484375l-3.234375 -4.125q-0.203125 -0.25 -0.203125 -0.5q0.015625 -0.265625 0.171875 -0.453125q0.171875 -0.203125 0.484375 -0.203125q0.328125 0 0.546875 0.21875l3.140625 4.015625l0.5 0.40625l3.46875 4.4375q0.25 0.296875 0.203125 0.5625q-0.03125 0.265625 -0.234375 0.421875q-0.1875 0.140625 -0.390625 0.140625zm-7.390625 0q-0.296875 0 -0.484375 -0.1875q-0.171875 -0.1875 -0.1875 -0.4375q0 -0.265625 0.203125 -0.515625l3.4375 -4.28125l0.796875 1.0625l-3.265625 4.140625q-0.171875 0.21875 -0.5 0.21875zm4.359375 -4.84375l-0.90625 -0.9375l3.21875 -4.09375q0.140625 -0.1875 0.296875 -0.25q0.15625 -0.078125 0.328125 -0.078125q0.3125 0 0.46875 0.203125q0.171875 0.1875 0.15625 0.46875q0 0.265625 -0.1875 0.5l-3.375 4.1875zm7.145508 4.84375q-0.328125 0 -0.53125 -0.1875q-0.1875 -0.203125 -0.1875 -0.546875l0 -8.75q0 -0.328125 0.1875 -0.515625q0.203125 -0.203125 0.53125 -0.203125q0.3125 0 0.515625 0.203125q0.203125 0.1875 0.203125 0.515625l0 8.75q0 0.34375 -0.203125 0.546875q-0.203125 0.1875 -0.515625 0.1875zm-0.015625 -12.140625q-0.421875 0 -0.71875 -0.296875q-0.296875 -0.3125 -0.296875 -0.734375q0 -0.46875 0.3125 -0.734375q0.3125 -0.265625 0.71875 -0.265625q0.390625 0 0.6875 0.265625q0.3125 0.265625 0.3125 0.734375q0 0.421875 -0.296875 0.734375q-0.296875 0.296875 -0.71875 0.296875zm8.376038 12.140625q-0.984375 0 -1.765625 -0.46875q-0.765625 -0.46875 -1.21875 -1.28125q-0.453125 -0.8125 -0.453125 -1.84375l0 -9.125q0 -0.328125 0.1875 -0.53125q0.203125 -0.203125 0.53125 -0.203125q0.3125 0 0.515625 0.203125q0.203125 0.203125 0.203125 0.53125l0 9.125q0 0.9375 0.5625 1.546875q0.5625 0.609375 1.4375 0.609375l0.5 0q0.296875 0 0.484375 0.203125q0.1875 0.203125 0.1875 0.53125q0 0.3125 -0.21875 0.515625q-0.21875 0.1875 -0.5625 0.1875l-0.390625 0zm-4.640625 -8.578125q-0.28125 0 -0.46875 -0.171875q-0.1875 -0.1875 -0.1875 -0.453125q0 -0.28125 0.1875 -0.453125q0.1875 -0.171875 0.46875 -0.171875l4.75 0q0.28125 0 0.46875 0.171875q0.1875 0.171875 0.1875 0.453125q0 0.265625 -0.1875 0.453125q-0.1875 0.171875 -0.46875 0.171875l-4.75 0zm9.906067 13.015625q-0.15625 0 -0.34375 -0.078125q-0.625 -0.28125 -0.34375 -0.890625l6.015625 -13.28125q0.28125 -0.59375 0.890625 -0.34375q0.640625 0.265625 0.359375 0.890625l-6.046875 13.28125q-0.1875 0.421875 -0.53125 0.421875zm2.0625 -4.75q-0.28125 0.125 -0.53125 0.046875q-0.234375 -0.09375 -0.375 -0.375l-4.171875 -8.609375q-0.125 -0.28125 -0.03125 -0.515625q0.09375 -0.25 0.375 -0.390625q0.28125 -0.125 0.515625 -0.03125q0.25 0.078125 0.375 0.359375l4.09375 8.609375q0.140625 0.28125 0.078125 0.53125q-0.046875 0.234375 -0.328125 0.375z" fill-rule="nonzero"/><path fill="#000000" fill-opacity="0.0" d="m126.58793 167.72617l355.68506 0l0 42.015747l-355.68506 0z" fill-rule="evenodd"/><path fill="#000000" d="m138.18167 195.45404q-0.296875 0 -0.515625 -0.203125q-0.21875 -0.203125 -0.21875 -0.53125l0 -13.109375q0 -0.296875 0.21875 -0.515625q0.21875 -0.21875 0.515625 -0.21875q0.296875 0 0.515625 0.21875q0.21875 0.21875 0.21875 0.515625l0 12.46875l7.28125 0q0.296875 0 0.515625 0.203125q0.21875 0.1875 0.21875 0.484375q0 0.296875 -0.21875 0.5q-0.21875 0.1875 -0.515625 0.1875l-8.015625 0zm11.809402 0q-0.296875 0 -0.515625 -0.203125q-0.21875 -0.203125 -0.21875 -0.53125l0 -13.109375q0 -0.296875 0.21875 -0.515625q0.21875 -0.21875 0.515625 -0.21875q0.296875 0 0.515625 0.21875q0.21875 0.21875 0.21875 0.515625l0 12.46875l7.28125 0q0.296875 0 0.515625 0.203125q0.21875 0.1875 0.21875 0.484375q0 0.296875 -0.21875 0.5q-0.21875 0.1875 -0.515625 0.1875l-8.015625 0zm11.809402 0q-0.296875 0 -0.515625 -0.203125q-0.21875 -0.21875 -0.21875 -0.53125l0 -13.109375q0 -0.3125 0.21875 -0.515625q0.21875 -0.21875 0.515625 -0.21875q0.453125 0 0.65625 0.375l6.28125 12.5l-0.625 0l6.171875 -12.5q0.21875 -0.375 0.65625 -0.375q0.296875 0 0.5 0.21875q0.203125 0.203125 0.203125 0.515625l0 13.109375q0 0.3125 -0.203125 0.53125q-0.203125 0.203125 -0.5 0.203125q-0.328125 0 -0.546875 -0.203125q-0.203125 -0.21875 -0.203125 -0.53125l0 -11.21875l0.3125 0.015625l-5.5 11.25q-0.203125 0.359375 -0.640625 0.359375q-0.46875 0 -0.671875 -0.453125l-5.53125 -11.078125l0.375 -0.09375l0 11.21875q0 0.3125 -0.21875 0.53125q-0.21875 0.203125 -0.515625 0.203125zm23.877441 0q-0.328125 0 -0.53125 -0.1875q-0.1875 -0.203125 -0.1875 -0.546875l0 -8.75q0 -0.328125 0.1875 -0.515625q0.203125 -0.203125 0.53125 -0.203125q0.3125 0 0.515625 0.203125q0.203125 0.1875 0.203125 0.515625l0 8.75q0 0.34375 -0.203125 0.546875q-0.203125 0.1875 -0.515625 0.1875zm-0.015625 -12.140625q-0.421875 0 -0.71875 -0.296875q-0.296875 -0.3125 -0.296875 -0.734375q0 -0.46875 0.3125 -0.734375q0.3125 -0.265625 0.71875 -0.265625q0.390625 0 0.6875 0.265625q0.3125 0.265625 0.3125 0.734375q0 0.421875 -0.296875 0.734375q-0.296875 0.296875 -0.71875 0.296875zm13.126038 12.140625q-0.3125 0 -0.515625 -0.203125q-0.203125 -0.203125 -0.203125 -0.5l0 -4.859375q0 -1.15625 -0.4375 -1.890625q-0.4375 -0.75 -1.203125 -1.125q-0.75 -0.375 -1.703125 -0.375q-0.90625 0 -1.65625 0.359375q-0.734375 0.34375 -1.171875 0.96875q-0.421875 0.609375 -0.421875 1.390625l-1.015625 0q0.03125 -1.171875 0.625 -2.09375q0.609375 -0.921875 1.59375 -1.453125q0.984375 -0.53125 2.203125 -0.53125q1.3125 0 2.359375 0.546875q1.046875 0.546875 1.65625 1.609375q0.609375 1.0625 0.609375 2.59375l0 4.859375q0 0.296875 -0.203125 0.5q-0.203125 0.203125 -0.515625 0.203125zm-8.015625 0q-0.328125 0 -0.53125 -0.1875q-0.203125 -0.203125 -0.203125 -0.515625l0 -8.78125q0 -0.328125 0.203125 -0.515625q0.203125 -0.203125 0.53125 -0.203125q0.3125 0 0.5 0.203125q0.203125 0.1875 0.203125 0.515625l0 8.78125q0 0.3125 -0.203125 0.515625q-0.1875 0.1875 -0.5 0.1875zm21.924683 0.09375q-1.484375 0 -2.625 -0.671875q-1.140625 -0.6875 -1.8125 -1.859375q-0.65625 -1.1875 -0.65625 -2.65625q0 -1.484375 0.625 -2.65625q0.640625 -1.1875 1.734375 -1.859375q1.109375 -0.6875 2.546875 -0.6875q1.140625 0 2.09375 0.453125q0.96875 0.4375 1.6875 1.34375q0.203125 0.21875 0.140625 0.46875q-0.046875 0.25 -0.3125 0.4375q-0.203125 0.15625 -0.453125 0.109375q-0.25 -0.046875 -0.4375 -0.28125q-1.078125 -1.234375 -2.71875 -1.234375q-1.046875 0 -1.84375 0.515625q-0.78125 0.5 -1.234375 1.375q-0.4375 0.875 -0.4375 2.015625q0 1.125 0.46875 2.0q0.46875 0.875 1.3125 1.375q0.84375 0.5 1.921875 0.5q0.71875 0 1.328125 -0.1875q0.609375 -0.203125 1.078125 -0.609375q0.21875 -0.1875 0.453125 -0.203125q0.25 -0.015625 0.453125 0.140625q0.234375 0.21875 0.25 0.484375q0.03125 0.25 -0.171875 0.4375q-1.359375 1.25 -3.390625 1.25zm11.194214 0q-1.5 0 -2.671875 -0.671875q-1.171875 -0.671875 -1.84375 -1.84375q-0.671875 -1.171875 -0.671875 -2.671875q0 -1.515625 0.671875 -2.6875q0.671875 -1.171875 1.84375 -1.84375q1.171875 -0.671875 2.671875 -0.671875q1.484375 0 2.65625 0.671875q1.171875 0.671875 1.84375 1.84375q0.671875 1.171875 0.6875 2.6875q0 1.5 -0.6875 2.671875q-0.671875 1.171875 -1.84375 1.84375q-1.171875 0.671875 -2.65625 0.671875zm0 -1.3125q1.078125 0 1.9375 -0.5q0.859375 -0.5 1.34375 -1.375q0.484375 -0.875 0.484375 -2.0q0 -1.125 -0.484375 -2.0q-0.484375 -0.890625 -1.34375 -1.390625q-0.859375 -0.515625 -1.9375 -0.515625q-1.078125 0 -1.9375 0.515625q-0.859375 0.5 -1.359375 1.390625q-0.5 0.875 -0.5 2.0q0 1.125 0.5 2.0q0.5 0.875 1.359375 1.375q0.859375 0.5 1.9375 0.5zm12.63028 1.3125q-1.484375 0 -2.65625 -0.671875q-1.171875 -0.6875 -1.859375 -1.859375q-0.671875 -1.1875 -0.671875 -2.671875q0 -1.46875 0.65625 -2.640625q0.671875 -1.1875 1.796875 -1.859375q1.140625 -0.6875 2.578125 -0.6875q1.25 0 2.25 0.53125q1.015625 0.53125 1.640625 1.40625l0 -5.484375q0 -0.328125 0.203125 -0.53125q0.203125 -0.203125 0.515625 -0.203125q0.3125 0 0.515625 0.203125q0.21875 0.203125 0.21875 0.53125l0 8.8125q-0.046875 1.453125 -0.734375 2.625q-0.671875 1.15625 -1.84375 1.828125q-1.15625 0.671875 -2.609375 0.671875zm0 -1.3125q1.078125 0 1.921875 -0.5q0.859375 -0.515625 1.34375 -1.390625q0.5 -0.890625 0.5 -2.0q0 -1.109375 -0.5 -1.984375q-0.484375 -0.890625 -1.34375 -1.390625q-0.84375 -0.515625 -1.921875 -0.515625q-1.0625 0 -1.921875 0.515625q-0.859375 0.5 -1.375 1.390625q-0.5 0.875 -0.5 1.984375q0 1.109375 0.5 2.0q0.515625 0.875 1.375 1.390625q0.859375 0.5 1.921875 0.5zm13.174347 1.3125q-1.515625 0 -2.6875 -0.65625q-1.15625 -0.671875 -1.828125 -1.84375q-0.65625 -1.171875 -0.65625 -2.6875q0 -1.53125 0.625 -2.6875q0.625 -1.171875 1.71875 -1.84375q1.109375 -0.671875 2.546875 -0.671875q1.40625 0 2.453125 0.640625q1.0625 0.640625 1.640625 1.78125q0.578125 1.140625 0.578125 2.59375q0 0.296875 -0.1875 0.484375q-0.1875 0.171875 -0.484375 0.171875l-7.921875 0l0 -1.203125l8.078125 0l-0.796875 0.578125q0.015625 -1.078125 -0.40625 -1.9375q-0.40625 -0.859375 -1.15625 -1.34375q-0.75 -0.484375 -1.796875 -0.484375q-1.0625 0 -1.875 0.515625q-0.796875 0.5 -1.234375 1.390625q-0.4375 0.875 -0.4375 2.015625q0 1.140625 0.484375 2.015625q0.5 0.875 1.359375 1.390625q0.859375 0.5 1.984375 0.5q0.671875 0 1.34375 -0.234375q0.6875 -0.234375 1.09375 -0.59375q0.203125 -0.171875 0.46875 -0.171875q0.265625 -0.015625 0.4375 0.140625q0.25 0.21875 0.25 0.484375q0.015625 0.25 -0.203125 0.4375q-0.625 0.53125 -1.578125 0.875q-0.9375 0.34375 -1.8125 0.34375zm6.658081 2.921875q-0.1875 0 -0.296875 -0.109375q-0.09376526 -0.09375 -0.09376526 -0.25q0 -0.28125 0.15626526 -0.515625q0.171875 -0.234375 0.34375 -0.5q0.1875 -0.265625 0.1875 -0.640625q0 -0.328125 -0.140625 -0.5625q-0.125 -0.21875 -0.3125 -0.390625q-0.171875 -0.171875 -0.29689026 -0.390625q-0.125 -0.21875 -0.125 -0.53125q0 -0.46875 0.29689026 -0.75q0.3125 -0.28125 0.78125 -0.28125q0.5625 0 0.90625 0.4375q0.359375 0.4375 0.359375 1.21875q0 0.53125 -0.15625 1.109375q-0.140625 0.578125 -0.40625 1.0625q-0.25 0.5 -0.578125 0.796875q-0.3125 0.296875 -0.625 0.296875zm14.338837 -2.921875q-1.4375 0 -2.578125 -0.671875q-1.125 -0.6875 -1.796875 -1.859375q-0.65625 -1.1875 -0.65625 -2.65625q0 -1.484375 0.671875 -2.65625q0.6875 -1.1875 1.859375 -1.859375q1.171875 -0.6875 2.65625 -0.6875q1.46875 0 2.625 0.6875q1.171875 0.671875 1.859375 1.859375q0.6875 1.171875 0.703125 2.65625l-0.578125 0.453125q0 1.34375 -0.625 2.421875q-0.625 1.0625 -1.703125 1.6875q-1.078125 0.625 -2.4375 0.625zm0.15625 -1.3125q1.078125 0 1.921875 -0.5q0.859375 -0.5 1.34375 -1.390625q0.5 -0.890625 0.5 -1.984375q0 -1.125 -0.5 -2.0q-0.484375 -0.875 -1.34375 -1.390625q-0.84375 -0.515625 -1.921875 -0.515625q-1.0625 0 -1.921875 0.515625q-0.859375 0.515625 -1.375 1.390625q-0.5 0.875 -0.5 2.0q0 1.09375 0.5 1.984375q0.515625 0.890625 1.375 1.390625q0.859375 0.5 1.921875 0.5zm4.453125 1.21875q-0.3125 0 -0.515625 -0.1875q-0.203125 -0.203125 -0.203125 -0.515625l0 -3.203125l0.34375 -1.46875l1.109375 0.28125l0 4.390625q0 0.3125 -0.21875 0.515625q-0.203125 0.1875 -0.515625 0.1875zm8.020905 0.09375q-1.46875 0 -2.609375 -0.65625q-1.140625 -0.671875 -1.78125 -1.84375q-0.640625 -1.171875 -0.640625 -2.6875q0 -1.53125 0.671875 -2.703125q0.671875 -1.171875 1.84375 -1.828125q1.171875 -0.671875 2.671875 -0.671875q1.5 0 2.671875 0.671875q1.171875 0.65625 1.828125 1.828125q0.671875 1.171875 0.6875 2.703125l-0.84375 0.453125q0 1.375 -0.578125 2.453125q-0.578125 1.0625 -1.59375 1.671875q-1.015625 0.609375 -2.328125 0.609375zm0.1875 3.9375q-1.46875 0 -2.59375 -0.5625q-1.109375 -0.546875 -1.84375 -1.484375q-0.203125 -0.234375 -0.1875 -0.5q0.03125 -0.25 0.28125 -0.421875q0.234375 -0.171875 0.53125 -0.125q0.3125 0.0625 0.46875 0.296875q0.546875 0.671875 1.390625 1.078125q0.859375 0.40625 1.96875 0.40625q1.046875 0 1.890625 -0.5q0.84375 -0.5 1.328125 -1.421875q0.5 -0.90625 0.5 -2.140625l0 -2.828125l0.546875 -1.09375l0.875 0.171875l0 3.8125q0 1.5 -0.671875 2.703125q-0.671875 1.203125 -1.828125 1.90625q-1.15625 0.703125 -2.65625 0.703125zm-0.03125 -5.25q1.09375 0 1.9375 -0.484375q0.859375 -0.5 1.34375 -1.375q0.484375 -0.875 0.484375 -2.015625q0 -1.140625 -0.484375 -2.015625q-0.484375 -0.890625 -1.34375 -1.390625q-0.84375 -0.5 -1.9375 -0.5q-1.109375 0 -1.96875 0.5q-0.859375 0.5 -1.34375 1.390625q-0.484375 0.875 -0.484375 2.015625q0 1.140625 0.484375 2.015625q0.484375 0.875 1.34375 1.375q0.859375 0.484375 1.96875 0.484375zm12.614655 1.3125q-1.515625 0 -2.6875 -0.65625q-1.15625 -0.671875 -1.828125 -1.84375q-0.65625 -1.171875 -0.65625 -2.6875q0 -1.53125 0.625 -2.6875q0.625 -1.171875 1.71875 -1.84375q1.109375 -0.671875 2.546875 -0.671875q1.40625 0 2.453125 0.640625q1.0625 0.640625 1.640625 1.78125q0.578125 1.140625 0.578125 2.59375q0 0.296875 -0.1875 0.484375q-0.1875 0.171875 -0.484375 0.171875l-7.921875 0l0 -1.203125l8.078125 0l-0.796875 0.578125q0.015625 -1.078125 -0.40625 -1.9375q-0.40625 -0.859375 -1.15625 -1.34375q-0.75 -0.484375 -1.796875 -0.484375q-1.0625 0 -1.875 0.515625q-0.796875 0.5 -1.234375 1.390625q-0.4375 0.875 -0.4375 2.015625q0 1.140625 0.484375 2.015625q0.5 0.875 1.359375 1.390625q0.859375 0.5 1.984375 0.5q0.671875 0 1.34375 -0.234375q0.6875 -0.234375 1.09375 -0.59375q0.203125 -0.171875 0.46875 -0.171875q0.265625 -0.015625 0.4375 0.140625q0.25 0.21875 0.25 0.484375q0.015625 0.25 -0.203125 0.4375q-0.625 0.53125 -1.578125 0.875q-0.9375 0.34375 -1.8125 0.34375zm15.564301 -0.09375q-0.3125 0 -0.515625 -0.203125q-0.203125 -0.203125 -0.203125 -0.5l0 -4.859375q0 -1.15625 -0.4375 -1.890625q-0.4375 -0.75 -1.203125 -1.125q-0.75 -0.375 -1.703125 -0.375q-0.90625 0 -1.65625 0.359375q-0.734375 0.34375 -1.171875 0.96875q-0.421875 0.609375 -0.421875 1.390625l-1.015625 0q0.03125 -1.171875 0.625 -2.09375q0.609375 -0.921875 1.59375 -1.453125q0.984375 -0.53125 2.203125 -0.53125q1.3125 0 2.359375 0.546875q1.046875 0.546875 1.65625 1.609375q0.609375 1.0625 0.609375 2.59375l0 4.859375q0 0.296875 -0.203125 0.5q-0.203125 0.203125 -0.515625 0.203125zm-8.015625 0q-0.328125 0 -0.53125 -0.1875q-0.203125 -0.203125 -0.203125 -0.515625l0 -8.78125q0 -0.328125 0.203125 -0.515625q0.203125 -0.203125 0.53125 -0.203125q0.3125 0 0.5 0.203125q0.203125 0.1875 0.203125 0.515625l0 8.78125q0 0.3125 -0.203125 0.515625q-0.1875 0.1875 -0.5 0.1875zm15.895905 0q-0.984375 0 -1.765625 -0.46875q-0.765625 -0.46875 -1.21875 -1.28125q-0.453125 -0.8125 -0.453125 -1.84375l0 -9.125q0 -0.328125 0.1875 -0.53125q0.203125 -0.203125 0.53125 -0.203125q0.3125 0 0.515625 0.203125q0.203125 0.203125 0.203125 0.53125l0 9.125q0 0.9375 0.5625 1.546875q0.5625 0.609375 1.4375 0.609375l0.5 0q0.296875 0 0.484375 0.203125q0.1875 0.203125 0.1875 0.53125q0 0.3125 -0.21875 0.515625q-0.21875 0.1875 -0.5625 0.1875l-0.390625 0zm-4.640625 -8.578125q-0.28125 0 -0.46875 -0.171875q-0.1875 -0.1875 -0.1875 -0.453125q0 -0.28125 0.1875 -0.453125q0.1875 -0.171875 0.46875 -0.171875l4.75 0q0.28125 0 0.46875 0.171875q0.1875 0.171875 0.1875 0.453125q0 0.265625 -0.1875 0.453125q-0.1875 0.171875 -0.46875 0.171875l-4.75 0zm9.171692 8.578125q-0.328125 0 -0.53125 -0.1875q-0.1875 -0.203125 -0.1875 -0.546875l0 -8.75q0 -0.328125 0.1875 -0.515625q0.203125 -0.203125 0.53125 -0.203125q0.3125 0 0.515625 0.203125q0.203125 0.1875 0.203125 0.515625l0 8.75q0 0.34375 -0.203125 0.546875q-0.203125 0.1875 -0.515625 0.1875zm-0.015625 -12.140625q-0.421875 0 -0.71875 -0.296875q-0.296875 -0.3125 -0.296875 -0.734375q0 -0.46875 0.3125 -0.734375q0.3125 -0.265625 0.71875 -0.265625q0.390625 0 0.6875 0.265625q0.3125 0.265625 0.3125 0.734375q0 0.421875 -0.296875 0.734375q-0.296875 0.296875 -0.71875 0.296875zm8.938538 12.234375q-1.484375 0 -2.625 -0.671875q-1.140625 -0.6875 -1.8125 -1.859375q-0.65625 -1.1875 -0.65625 -2.65625q0 -1.484375 0.625 -2.65625q0.640625 -1.1875 1.734375 -1.859375q1.109375 -0.6875 2.546875 -0.6875q1.140625 0 2.09375 0.453125q0.96875 0.4375 1.6875 1.34375q0.203125 0.21875 0.140625 0.46875q-0.046875 0.25 -0.3125 0.4375q-0.203125 0.15625 -0.453125 0.109375q-0.25 -0.046875 -0.4375 -0.28125q-1.078125 -1.234375 -2.71875 -1.234375q-1.046875 0 -1.84375 0.515625q-0.78125 0.5 -1.234375 1.375q-0.4375 0.875 -0.4375 2.015625q0 1.125 0.46875 2.0q0.46875 0.875 1.3125 1.375q0.84375 0.5 1.921875 0.5q0.71875 0 1.328125 -0.1875q0.609375 -0.203125 1.078125 -0.609375q0.21875 -0.1875 0.453125 -0.203125q0.25 -0.015625 0.453125 0.140625q0.234375 0.21875 0.25 0.484375q0.03125 0.25 -0.171875 0.4375q-1.359375 1.25 -3.390625 1.25zm16.566742 0q-1.484375 0 -2.625 -0.671875q-1.140625 -0.6875 -1.8125 -1.859375q-0.65625 -1.1875 -0.65625 -2.65625q0 -1.484375 0.625 -2.65625q0.640625 -1.1875 1.734375 -1.859375q1.109375 -0.6875 2.546875 -0.6875q1.140625 0 2.09375 0.453125q0.96875 0.4375 1.6875 1.34375q0.203125 0.21875 0.140625 0.46875q-0.046875 0.25 -0.3125 0.4375q-0.203125 0.15625 -0.453125 0.109375q-0.25 -0.046875 -0.4375 -0.28125q-1.078125 -1.234375 -2.71875 -1.234375q-1.046875 0 -1.84375 0.515625q-0.78125 0.5 -1.234375 1.375q-0.4375 0.875 -0.4375 2.015625q0 1.125 0.46875 2.0q0.46875 0.875 1.3125 1.375q0.84375 0.5 1.921875 0.5q0.71875 0 1.328125 -0.1875q0.609375 -0.203125 1.078125 -0.609375q0.21875 -0.1875 0.453125 -0.203125q0.25 -0.015625 0.453125 0.140625q0.234375 0.21875 0.25 0.484375q0.03125 0.25 -0.171875 0.4375q-1.359375 1.25 -3.390625 1.25zm11.194214 0q-1.5 0 -2.671875 -0.671875q-1.171875 -0.671875 -1.84375 -1.84375q-0.671875 -1.171875 -0.671875 -2.671875q0 -1.515625 0.671875 -2.6875q0.671875 -1.171875 1.84375 -1.84375q1.171875 -0.671875 2.671875 -0.671875q1.484375 0 2.65625 0.671875q1.171875 0.671875 1.84375 1.84375q0.671875 1.171875 0.6875 2.6875q0 1.5 -0.6875 2.671875q-0.671875 1.171875 -1.84375 1.84375q-1.171875 0.671875 -2.65625 0.671875zm0 -1.3125q1.078125 0 1.9375 -0.5q0.859375 -0.5 1.34375 -1.375q0.484375 -0.875 0.484375 -2.0q0 -1.125 -0.484375 -2.0q-0.484375 -0.890625 -1.34375 -1.390625q-0.859375 -0.515625 -1.9375 -0.515625q-1.078125 0 -1.9375 0.515625q-0.859375 0.5 -1.359375 1.390625q-0.5 0.875 -0.5 2.0q0 1.125 0.5 2.0q0.5 0.875 1.359375 1.375q0.859375 0.5 1.9375 0.5zm12.63028 1.3125q-1.484375 0 -2.65625 -0.671875q-1.171875 -0.6875 -1.859375 -1.859375q-0.671875 -1.1875 -0.671875 -2.671875q0 -1.46875 0.65625 -2.640625q0.671875 -1.1875 1.796875 -1.859375q1.140625 -0.6875 2.578125 -0.6875q1.25 0 2.25 0.53125q1.015625 0.53125 1.640625 1.40625l0 -5.484375q0 -0.328125 0.203125 -0.53125q0.203125 -0.203125 0.515625 -0.203125q0.3125 0 0.515625 0.203125q0.21875 0.203125 0.21875 0.53125l0 8.8125q-0.046875 1.453125 -0.734375 2.625q-0.671875 1.15625 -1.84375 1.828125q-1.15625 0.671875 -2.609375 0.671875zm0 -1.3125q1.078125 0 1.921875 -0.5q0.859375 -0.515625 1.34375 -1.390625q0.5 -0.890625 0.5 -2.0q0 -1.109375 -0.5 -1.984375q-0.484375 -0.890625 -1.34375 -1.390625q-0.84375 -0.515625 -1.921875 -0.515625q-1.0625 0 -1.921875 0.515625q-0.859375 0.5 -1.375 1.390625q-0.5 0.875 -0.5 1.984375q0 1.109375 0.5 2.0q0.515625 0.875 1.375 1.390625q0.859375 0.5 1.921875 0.5zm13.174347 1.3125q-1.515625 0 -2.6875 -0.65625q-1.15625 -0.671875 -1.828125 -1.84375q-0.65625 -1.171875 -0.65625 -2.6875q0 -1.53125 0.625 -2.6875q0.625 -1.171875 1.71875 -1.84375q1.109375 -0.671875 2.546875 -0.671875q1.40625 0 2.453125 0.640625q1.0625 0.640625 1.640625 1.78125q0.578125 1.140625 0.578125 2.59375q0 0.296875 -0.1875 0.484375q-0.1875 0.171875 -0.484375 0.171875l-7.921875 0l0 -1.203125l8.078125 0l-0.796875 0.578125q0.015625 -1.078125 -0.40625 -1.9375q-0.40625 -0.859375 -1.15625 -1.34375q-0.75 -0.484375 -1.796875 -0.484375q-1.0625 0 -1.875 0.515625q-0.796875 0.5 -1.234375 1.390625q-0.4375 0.875 -0.4375 2.015625q0 1.140625 0.484375 2.015625q0.5 0.875 1.359375 1.390625q0.859375 0.5 1.984375 0.5q0.671875 0 1.34375 -0.234375q0.6875 -0.234375 1.09375 -0.59375q0.203125 -0.171875 0.46875 -0.171875q0.265625 -0.015625 0.4375 0.140625q0.25 0.21875 0.25 0.484375q0.015625 0.25 -0.203125 0.4375q-0.625 0.53125 -1.578125 0.875q-0.9375 0.34375 -1.8125 0.34375zm13.577454 -0.09375q-0.296875 0 -0.515625 -0.203125q-0.203125 -0.203125 -0.203125 -0.53125l0 -9.78125q0 -1.140625 0.453125 -2.0625q0.453125 -0.921875 1.359375 -1.46875q0.921875 -0.546875 2.28125 -0.53125q0.390625 0 0.84375 0.078125q0.46875 0.0625 0.953125 0.203125q0.421875 0.125 0.640625 0.328125q0.234375 0.1875 0.234375 0.5q0 0.375 -0.265625 0.515625q-0.25 0.125 -0.609375 0q-0.515625 -0.140625 -0.96875 -0.21875q-0.4375 -0.078125 -0.828125 -0.078125q-1.265625 0 -1.96875 0.671875q-0.6875 0.671875 -0.6875 2.09375l0 9.75q0 0.328125 -0.203125 0.53125q-0.203125 0.203125 -0.515625 0.203125zm-1.90625 -8.578125q-0.296875 0 -0.484375 -0.171875q-0.171875 -0.1875 -0.171875 -0.453125q0 -0.28125 0.171875 -0.453125q0.1875 -0.171875 0.484375 -0.171875l4.71875 0q0.296875 0 0.46875 0.171875q0.1875 0.171875 0.1875 0.453125q0 0.265625 -0.1875 0.453125q-0.171875 0.171875 -0.46875 0.171875l-4.71875 0zm9.53125 8.578125q-0.765625 0 -1.34375 -0.40625q-0.578125 -0.421875 -0.921875 -1.140625q-0.328125 -0.734375 -0.328125 -1.6875l0 -10.625q0 -0.3125 0.203125 -0.515625q0.203125 -0.203125 0.53125 -0.203125q0.296875 0 0.5 0.203125q0.203125 0.203125 0.203125 0.515625l0 10.625q0 0.8125 0.328125 1.3125q0.328125 0.5 0.828125 0.5l0.46875 0q0.265625 0 0.4375 0.203125q0.171875 0.1875 0.171875 0.515625q0 0.3125 -0.25 0.515625q-0.234375 0.1875 -0.59375 0.1875l-0.234375 0zm7.151703 0.09375q-1.5 0 -2.671875 -0.671875q-1.171875 -0.671875 -1.84375 -1.84375q-0.671875 -1.171875 -0.671875 -2.671875q0 -1.515625 0.671875 -2.6875q0.671875 -1.171875 1.84375 -1.84375q1.171875 -0.671875 2.671875 -0.671875q1.484375 0 2.65625 0.671875q1.171875 0.671875 1.84375 1.84375q0.671875 1.171875 0.6875 2.6875q0 1.5 -0.6875 2.671875q-0.671875 1.171875 -1.84375 1.84375q-1.171875 0.671875 -2.65625 0.671875zm0 -1.3125q1.078125 0 1.9375 -0.5q0.859375 -0.5 1.34375 -1.375q0.484375 -0.875 0.484375 -2.0q0 -1.125 -0.484375 -2.0q-0.484375 -0.890625 -1.34375 -1.390625q-0.859375 -0.515625 -1.9375 -0.515625q-1.078125 0 -1.9375 0.515625q-0.859375 0.5 -1.359375 1.390625q-0.5 0.875 -0.5 2.0q0 1.125 0.5 2.0q0.5 0.875 1.359375 1.375q0.859375 0.5 1.9375 0.5zm9.742157 1.21875q-0.25 0 -0.4375 -0.125q-0.1875 -0.140625 -0.265625 -0.34375l-2.90625 -8.734375q-0.109375 -0.453125 0.015625 -0.71875q0.140625 -0.28125 0.53125 -0.28125q0.234375 0 0.421875 0.140625q0.1875 0.125 0.28125 0.40625l2.59375 7.921875l-0.40625 0l2.40625 -7.90625q0.078125 -0.25 0.25 -0.40625q0.171875 -0.15625 0.453125 -0.15625q0.28125 0 0.453125 0.15625q0.1875 0.140625 0.265625 0.40625l2.28125 7.71875l-0.3125 0l2.53125 -7.734375q0.1875 -0.546875 0.703125 -0.546875q0.40625 0 0.546875 0.3125q0.15625 0.296875 0 0.6875l-2.90625 8.734375q-0.078125 0.203125 -0.25 0.34375q-0.171875 0.125 -0.421875 0.125q-0.234375 0 -0.4375 -0.125q-0.1875 -0.140625 -0.25 -0.34375l-2.34375 -7.796875l0.21875 0l-2.34375 7.796875q-0.078125 0.21875 -0.265625 0.34375q-0.1875 0.125 -0.40625 0.125zm15.055634 0.09375q-1.109375 0 -2.1875 -0.375q-1.078125 -0.375 -1.75 -1.125q-0.21875 -0.21875 -0.1875 -0.5q0.046875 -0.28125 0.296875 -0.484375q0.25 -0.1875 0.53125 -0.140625q0.28125 0.03125 0.46875 0.234375q0.453125 0.53125 1.1875 0.8125q0.734375 0.265625 1.640625 0.265625q1.375 0 1.984375 -0.46875q0.625 -0.484375 0.640625 -1.140625q0 -0.671875 -0.640625 -1.109375q-0.625 -0.453125 -2.078125 -0.6875q-1.890625 -0.296875 -2.765625 -1.046875q-0.875 -0.75 -0.875 -1.765625q0 -0.953125 0.5 -1.578125q0.5 -0.640625 1.34375 -0.953125q0.84375 -0.328125 1.84375 -0.328125q1.25 0 2.15625 0.4375q0.90625 0.421875 1.46875 1.140625q0.1875 0.25 0.140625 0.515625q-0.03125 0.25 -0.296875 0.421875q-0.21875 0.125 -0.515625 0.078125q-0.28125 -0.046875 -0.484375 -0.265625q-0.46875 -0.53125 -1.09375 -0.78125q-0.609375 -0.265625 -1.40625 -0.265625q-1.03125 0 -1.65625 0.421875q-0.609375 0.421875 -0.609375 1.0625q0 0.421875 0.234375 0.75q0.234375 0.3125 0.796875 0.5625q0.578125 0.234375 1.609375 0.390625q1.390625 0.234375 2.203125 0.671875q0.8125 0.4375 1.15625 1.03125q0.34375 0.578125 0.34375 1.265625q0 0.875 -0.515625 1.546875q-0.5 0.65625 -1.40625 1.03125q-0.90625 0.375 -2.078125 0.375z" fill-rule="nonzero"/><path fill="#000000" fill-opacity="0.0" d="m126.58793 238.38058l355.68506 0l0 42.015747l-355.68506 0z" fill-rule="evenodd"/><path fill="#000000" d="m136.65042 266.10846q-0.421875 0 -0.609375 -0.34375q-0.1875 -0.359375 -0.046875 -0.703125l5.484375 -13.015625q0.203125 -0.515625 0.71875 -0.515625q0.484375 0 0.6875 0.515625l5.5 13.03125q0.171875 0.359375 -0.046875 0.703125q-0.21875 0.328125 -0.609375 0.328125q-0.21875 0 -0.40625 -0.109375q-0.171875 -0.109375 -0.28125 -0.34375l-5.125 -12.4375l0.578125 0l-5.171875 12.4375q-0.09375 0.234375 -0.28125 0.34375q-0.171875 0.109375 -0.390625 0.109375zm1.234375 -3.46875l0.5625 -1.25l7.5625 0l0.5625 1.25l-8.6875 0zm13.412216 3.46875q-0.3125 0 -0.53125 -0.203125q-0.203125 -0.203125 -0.203125 -0.53125l0 -13.109375q0 -0.3125 0.203125 -0.515625q0.21875 -0.21875 0.53125 -0.21875q0.3125 0 0.515625 0.21875q0.21875 0.203125 0.21875 0.515625l0 13.109375q0 0.328125 -0.21875 0.53125q-0.203125 0.203125 -0.515625 0.203125zm9.12146 0q-0.421875 0 -0.609375 -0.34375q-0.1875 -0.359375 -0.046875 -0.703125l5.484375 -13.015625q0.203125 -0.515625 0.71875 -0.515625q0.484375 0 0.6875 0.515625l5.5 13.03125q0.171875 0.359375 -0.046875 0.703125q-0.21875 0.328125 -0.609375 0.328125q-0.21875 0 -0.40625 -0.109375q-0.171875 -0.109375 -0.28125 -0.34375l-5.125 -12.4375l0.578125 0l-5.171875 12.4375q-0.09375 0.234375 -0.28125 0.34375q-0.171875 0.109375 -0.390625 0.109375zm1.234375 -3.46875l0.5625 -1.25l7.5625 0l0.5625 1.25l-8.6875 0zm16.617004 3.5625q-1.46875 0 -2.609375 -0.65625q-1.140625 -0.671875 -1.78125 -1.84375q-0.640625 -1.171875 -0.640625 -2.6875q0 -1.53125 0.671875 -2.703125q0.671875 -1.171875 1.84375 -1.828125q1.171875 -0.671875 2.671875 -0.671875q1.5 0 2.671875 0.671875q1.171875 0.65625 1.828125 1.828125q0.671875 1.171875 0.6875 2.703125l-0.84375 0.453125q0 1.375 -0.578125 2.453125q-0.578125 1.0625 -1.59375 1.671875q-1.015625 0.609375 -2.328125 0.609375zm0.1875 3.9375q-1.46875 0 -2.59375 -0.5625q-1.109375 -0.546875 -1.84375 -1.484375q-0.203125 -0.234375 -0.1875 -0.5q0.03125 -0.25 0.28125 -0.421875q0.234375 -0.171875 0.53125 -0.125q0.3125 0.0625 0.46875 0.296875q0.546875 0.671875 1.390625 1.078125q0.859375 0.40625 1.96875 0.40625q1.046875 0 1.890625 -0.5q0.84375 -0.5 1.328125 -1.421875q0.5 -0.90625 0.5 -2.140625l0 -2.828125l0.546875 -1.09375l0.875 0.171875l0 3.8125q0 1.5 -0.671875 2.703125q-0.671875 1.203125 -1.828125 1.90625q-1.15625 0.703125 -2.65625 0.703125zm-0.03125 -5.25q1.09375 0 1.9375 -0.484375q0.859375 -0.5 1.34375 -1.375q0.484375 -0.875 0.484375 -2.015625q0 -1.140625 -0.484375 -2.015625q-0.484375 -0.890625 -1.34375 -1.390625q-0.84375 -0.5 -1.9375 -0.5q-1.109375 0 -1.96875 0.5q-0.859375 0.5 -1.34375 1.390625q-0.484375 0.875 -0.484375 2.015625q0 1.140625 0.484375 2.015625q0.484375 0.875 1.34375 1.375q0.859375 0.484375 1.96875 0.484375zm12.614655 1.3125q-1.515625 0 -2.6875 -0.65625q-1.15625 -0.671875 -1.828125 -1.84375q-0.65625 -1.171875 -0.65625 -2.6875q0 -1.53125 0.625 -2.6875q0.625 -1.171875 1.71875 -1.84375q1.109375 -0.671875 2.546875 -0.671875q1.40625 0 2.453125 0.640625q1.0625 0.640625 1.640625 1.78125q0.578125 1.140625 0.578125 2.59375q0 0.296875 -0.1875 0.484375q-0.1875 0.171875 -0.484375 0.171875l-7.921875 0l0 -1.203125l8.078125 0l-0.796875 0.578125q0.015625 -1.078125 -0.40625 -1.9375q-0.40625 -0.859375 -1.15625 -1.34375q-0.75 -0.484375 -1.796875 -0.484375q-1.0625 0 -1.875 0.515625q-0.796875 0.5 -1.234375 1.390625q-0.4375 0.875 -0.4375 2.015625q0 1.140625 0.484375 2.015625q0.5 0.875 1.359375 1.390625q0.859375 0.5 1.984375 0.5q0.671875 0 1.34375 -0.234375q0.6875 -0.234375 1.09375 -0.59375q0.203125 -0.171875 0.46875 -0.171875q0.265625 -0.015625 0.4375 0.140625q0.25 0.21875 0.25 0.484375q0.015625 0.25 -0.203125 0.4375q-0.625 0.53125 -1.578125 0.875q-0.9375 0.34375 -1.8125 0.34375zm15.564316 -0.09375q-0.3125 0 -0.515625 -0.203125q-0.203125 -0.203125 -0.203125 -0.5l0 -4.859375q0 -1.15625 -0.4375 -1.890625q-0.4375 -0.75 -1.203125 -1.125q-0.75 -0.375 -1.703125 -0.375q-0.90625 0 -1.65625 0.359375q-0.734375 0.34375 -1.171875 0.96875q-0.421875 0.609375 -0.421875 1.390625l-1.015625 0q0.03125 -1.171875 0.625 -2.09375q0.609375 -0.921875 1.59375 -1.453125q0.984375 -0.53125 2.203125 -0.53125q1.3125 0 2.359375 0.546875q1.046875 0.546875 1.65625 1.609375q0.609375 1.0625 0.609375 2.59375l0 4.859375q0 0.296875 -0.203125 0.5q-0.203125 0.203125 -0.515625 0.203125zm-8.015625 0q-0.328125 0 -0.53125 -0.1875q-0.203125 -0.203125 -0.203125 -0.515625l0 -8.78125q0 -0.328125 0.203125 -0.515625q0.203125 -0.203125 0.53125 -0.203125q0.3125 0 0.5 0.203125q0.203125 0.1875 0.203125 0.515625l0 8.78125q0 0.3125 -0.203125 0.515625q-0.1875 0.1875 -0.5 0.1875zm15.895905 0q-0.984375 0 -1.765625 -0.46875q-0.765625 -0.46875 -1.21875 -1.28125q-0.453125 -0.8125 -0.453125 -1.84375l0 -9.125q0 -0.328125 0.1875 -0.53125q0.203125 -0.203125 0.53125 -0.203125q0.3125 0 0.515625 0.203125q0.203125 0.203125 0.203125 0.53125l0 9.125q0 0.9375 0.5625 1.546875q0.5625 0.609375 1.4375 0.609375l0.5 0q0.296875 0 0.484375 0.203125q0.1875 0.203125 0.1875 0.53125q0 0.3125 -0.21875 0.515625q-0.21875 0.1875 -0.5625 0.1875l-0.390625 0zm-4.640625 -8.578125q-0.28125 0 -0.46875 -0.171875q-0.1875 -0.1875 -0.1875 -0.453125q0 -0.28125 0.1875 -0.453125q0.1875 -0.171875 0.46875 -0.171875l4.75 0q0.28125 0 0.46875 0.171875q0.1875 0.171875 0.1875 0.453125q0 0.265625 -0.1875 0.453125q-0.1875 0.171875 -0.46875 0.171875l-4.75 0zm11.718567 8.671875q-1.109375 0 -2.1875 -0.375q-1.078125 -0.375 -1.75 -1.125q-0.21875 -0.21875 -0.1875 -0.5q0.046875 -0.28125 0.296875 -0.484375q0.25 -0.1875 0.53125 -0.140625q0.28125 0.03125 0.46875 0.234375q0.453125 0.53125 1.1875 0.8125q0.734375 0.265625 1.640625 0.265625q1.375 0 1.984375 -0.46875q0.625 -0.484375 0.640625 -1.140625q0 -0.671875 -0.640625 -1.109375q-0.625 -0.453125 -2.078125 -0.6875q-1.890625 -0.296875 -2.765625 -1.046875q-0.875 -0.75 -0.875 -1.765625q0 -0.953125 0.5 -1.578125q0.5 -0.640625 1.34375 -0.953125q0.84375 -0.328125 1.84375 -0.328125q1.25 0 2.15625 0.4375q0.90625 0.421875 1.46875 1.140625q0.1875 0.25 0.140625 0.515625q-0.03125 0.25 -0.296875 0.421875q-0.21875 0.125 -0.515625 0.078125q-0.28125 -0.046875 -0.484375 -0.265625q-0.46875 -0.53125 -1.09375 -0.78125q-0.609375 -0.265625 -1.40625 -0.265625q-1.03125 0 -1.65625 0.421875q-0.609375 0.421875 -0.609375 1.0625q0 0.421875 0.234375 0.75q0.234375 0.3125 0.796875 0.5625q0.578125 0.234375 1.609375 0.390625q1.390625 0.234375 2.203125 0.671875q0.8125 0.4375 1.15625 1.03125q0.34375 0.578125 0.34375 1.265625q0 0.875 -0.515625 1.546875q-0.5 0.65625 -1.40625 1.03125q-0.90625 0.375 -2.078125 0.375z" fill-rule="nonzero"/><path fill="#000000" fill-opacity="0.0" d="m6.7125983 92.24147l135.84251 0l0 42.015747l-135.84251 0z" fill-rule="evenodd"/><path fill="#000000" d="m21.806349 119.969345q-0.296875 0 -0.515625 -0.203125q-0.203125 -0.21875 -0.203125 -0.53125l0 -13.84375l1.453125 0l0 13.84375q0 0.3125 -0.203125 0.53125q-0.203125 0.203125 -0.53125 0.203125zm-5.140625 -13.25q-0.296875 0 -0.484375 -0.1875q-0.1875 -0.1875 -0.1875 -0.46875q0 -0.296875 0.1875 -0.484375q0.1875 -0.1875 0.484375 -0.1875l10.3125 0q0.296875 0 0.484375 0.1875q0.1875 0.1875 0.1875 0.484375q0 0.28125 -0.1875 0.46875q-0.1875 0.1875 -0.484375 0.1875l-10.3125 0zm13.783188 13.25q-0.328125 0 -0.53125 -0.1875q-0.1875 -0.203125 -0.1875 -0.546875l0 -8.75q0 -0.328125 0.1875 -0.515625q0.203125 -0.203125 0.53125 -0.203125q0.3125 0 0.515625 0.203125q0.203125 0.1875 0.203125 0.515625l0 8.75q0 0.34375 -0.203125 0.546875q-0.203125 0.1875 -0.515625 0.1875zm-0.015625 -12.140625q-0.421875 0 -0.71875 -0.296875q-0.296875 -0.3125 -0.296875 -0.734375q0 -0.46875 0.3125 -0.734375q0.3125 -0.265625 0.71875 -0.265625q0.390625 0 0.6875 0.265625q0.3125 0.265625 0.3125 0.734375q0 0.421875 -0.296875 0.734375q-0.296875 0.296875 -0.71875 0.296875zm9.016661 12.234375q-1.515625 0 -2.6875 -0.65625q-1.15625 -0.671875 -1.828125 -1.84375q-0.65625 -1.171875 -0.65625 -2.6875q0 -1.53125 0.625 -2.6875q0.625 -1.171875 1.71875 -1.84375q1.109375 -0.671875 2.546875 -0.671875q1.40625 0 2.453125 0.640625q1.0625 0.640625 1.640625 1.78125q0.578125 1.140625 0.578125 2.59375q0 0.296875 -0.1875 0.484375q-0.1875 0.171875 -0.484375 0.171875l-7.921875 0l0 -1.203125l8.078125 0l-0.796875 0.578125q0.015625 -1.078125 -0.40625 -1.9375q-0.40625 -0.859375 -1.15625 -1.34375q-0.75 -0.484375 -1.796875 -0.484375q-1.0625 0 -1.875 0.515625q-0.796875 0.5 -1.234375 1.390625q-0.4375 0.875 -0.4375 2.015625q0 1.140625 0.484375 2.015625q0.5 0.875 1.359375 1.390625q0.859375 0.5 1.984375 0.5q0.671875 0 1.34375 -0.234375q0.6875 -0.234375 1.09375 -0.59375q0.203125 -0.171875 0.46875 -0.171875q0.265625 -0.015625 0.4375 0.140625q0.25 0.21875 0.25 0.484375q0.015625 0.25 -0.203125 0.4375q-0.625 0.53125 -1.578125 0.875q-0.9375 0.34375 -1.8125 0.34375zm7.423691 -6.375q0.046875 -1.15625 0.59375 -2.0625q0.5625 -0.921875 1.4375 -1.4375q0.890625 -0.53125 1.96875 -0.53125q0.859375 0 1.328125 0.25q0.46875 0.234375 0.359375 0.703125q-0.078125 0.28125 -0.265625 0.375q-0.171875 0.078125 -0.421875 0.0625q-0.25 -0.015625 -0.5625 -0.03125q-1.046875 -0.09375 -1.859375 0.21875q-0.8125 0.296875 -1.296875 0.9375q-0.46875 0.640625 -0.46875 1.515625l-0.8125 0zm0.109375 6.28125q-0.34375 0 -0.53125 -0.1875q-0.1875 -0.1875 -0.1875 -0.515625l0 -8.796875q0 -0.328125 0.1875 -0.515625q0.1875 -0.1875 0.53125 -0.1875q0.328125 0 0.515625 0.1875q0.1875 0.1875 0.1875 0.515625l0 8.796875q0 0.328125 -0.1875 0.515625q-0.1875 0.1875 -0.515625 0.1875zm13.667099 0q-0.296875 0 -0.515625 -0.203125q-0.203125 -0.203125 -0.203125 -0.53125q0 -0.265625 0.203125 -0.5l5.656254 -6.671875q0.46875 -0.5 0.734375 -1.125q0.28125 -0.625 0.28125 -1.171875q0 -0.875 -0.34375 -1.546875q-0.34375 -0.671875 -0.96875 -1.046875q-0.625 -0.390625 -1.421875 -0.390625q-0.7812538 0 -1.4375038 0.40625q-0.640625 0.390625 -1.0 1.0625q-0.359375 0.671875 -0.359375 1.515625q0 0.296875 -0.21875 0.5q-0.203125 0.203125 -0.515625 0.203125q-0.296875 0 -0.515625 -0.203125q-0.203125 -0.203125 -0.203125 -0.5q0 -1.25 0.546875 -2.234375q0.5625 -1.0 1.515625 -1.578125q0.96875 -0.578125 2.1875038 -0.578125q1.203125 0 2.140625 0.5625q0.953125 0.5625 1.484375 1.546875q0.53125 0.984375 0.53125 2.28125q0 0.609375 -0.203125 1.171875q-0.1875 0.5625 -0.53125 1.078125q-0.328125 0.515625 -0.71875 0.953125l-4.781254 5.546875l5.843754 0q0.296875 0 0.515625 0.234375q0.21875 0.21875 0.21875 0.484375q0 0.328125 -0.21875 0.53125q-0.21875 0.203125 -0.515625 0.203125l-7.187504 0z" fill-rule="nonzero"/><path fill="#000000" fill-opacity="0.0" d="m6.7125983 167.72704l135.84251 0l0 42.015747l-135.84251 0z" fill-rule="evenodd"/><path fill="#000000" d="m21.806349 195.45491q-0.296875 0 -0.515625 -0.203125q-0.203125 -0.21875 -0.203125 -0.53125l0 -13.84375l1.453125 0l0 13.84375q0 0.3125 -0.203125 0.53125q-0.203125 0.203125 -0.53125 0.203125zm-5.140625 -13.25q-0.296875 0 -0.484375 -0.1875q-0.1875 -0.1875 -0.1875 -0.46875q0 -0.296875 0.1875 -0.484375q0.1875 -0.1875 0.484375 -0.1875l10.3125 0q0.296875 0 0.484375 0.1875q0.1875 0.1875 0.1875 0.484375q0 0.28125 -0.1875 0.46875q-0.1875 0.1875 -0.484375 0.1875l-10.3125 0zm13.783188 13.25q-0.328125 0 -0.53125 -0.1875q-0.1875 -0.203125 -0.1875 -0.546875l0 -8.75q0 -0.328125 0.1875 -0.515625q0.203125 -0.203125 0.53125 -0.203125q0.3125 0 0.515625 0.203125q0.203125 0.1875 0.203125 0.515625l0 8.75q0 0.34375 -0.203125 0.546875q-0.203125 0.1875 -0.515625 0.1875zm-0.015625 -12.140625q-0.421875 0 -0.71875 -0.296875q-0.296875 -0.3125 -0.296875 -0.734375q0 -0.46875 0.3125 -0.734375q0.3125 -0.265625 0.71875 -0.265625q0.390625 0 0.6875 0.265625q0.3125 0.265625 0.3125 0.734375q0 0.421875 -0.296875 0.734375q-0.296875 0.296875 -0.71875 0.296875zm9.016661 12.234375q-1.515625 0 -2.6875 -0.65625q-1.15625 -0.671875 -1.828125 -1.84375q-0.65625 -1.171875 -0.65625 -2.6875q0 -1.53125 0.625 -2.6875q0.625 -1.171875 1.71875 -1.84375q1.109375 -0.671875 2.546875 -0.671875q1.40625 0 2.453125 0.640625q1.0625 0.640625 1.640625 1.78125q0.578125 1.140625 0.578125 2.59375q0 0.296875 -0.1875 0.484375q-0.1875 0.171875 -0.484375 0.171875l-7.921875 0l0 -1.203125l8.078125 0l-0.796875 0.578125q0.015625 -1.078125 -0.40625 -1.9375q-0.40625 -0.859375 -1.15625 -1.34375q-0.75 -0.484375 -1.796875 -0.484375q-1.0625 0 -1.875 0.515625q-0.796875 0.5 -1.234375 1.390625q-0.4375 0.875 -0.4375 2.015625q0 1.140625 0.484375 2.015625q0.5 0.875 1.359375 1.390625q0.859375 0.5 1.984375 0.5q0.671875 0 1.34375 -0.234375q0.6875 -0.234375 1.09375 -0.59375q0.203125 -0.171875 0.46875 -0.171875q0.265625 -0.015625 0.4375 0.140625q0.25 0.21875 0.25 0.484375q0.015625 0.25 -0.203125 0.4375q-0.625 0.53125 -1.578125 0.875q-0.9375 0.34375 -1.8125 0.34375zm7.423691 -6.375q0.046875 -1.15625 0.59375 -2.0625q0.5625 -0.921875 1.4375 -1.4375q0.890625 -0.53125 1.96875 -0.53125q0.859375 0 1.328125 0.25q0.46875 0.234375 0.359375 0.703125q-0.078125 0.28125 -0.265625 0.375q-0.171875 0.078125 -0.421875 0.0625q-0.25 -0.015625 -0.5625 -0.03125q-1.046875 -0.09375 -1.859375 0.21875q-0.8125 0.296875 -1.296875 0.9375q-0.46875 0.640625 -0.46875 1.515625l-0.8125 0zm0.109375 6.28125q-0.34375 0 -0.53125 -0.1875q-0.1875 -0.1875 -0.1875 -0.515625l0 -8.796875q0 -0.328125 0.1875 -0.515625q0.1875 -0.1875 0.53125 -0.1875q0.328125 0 0.515625 0.1875q0.1875 0.1875 0.1875 0.515625l0 8.796875q0 0.328125 -0.1875 0.515625q-0.1875 0.1875 -0.515625 0.1875zm17.213978 0.09375q-1.2968788 0 -2.3437538 -0.5625q-1.03125 -0.578125 -1.625 -1.5625q-0.59375 -0.984375 -0.59375 -2.234375q0 -0.328125 0.1875 -0.546875q0.1875 -0.21875 0.5 -0.21875q0.3125 0 0.5 0.21875q0.1875 0.21875 0.1875 0.546875q0 0.84375 0.40625 1.53125q0.421875 0.6875 1.140625 1.09375q0.71875 0.390625 1.5937538 0.390625q1.453125 0 2.265625 -0.8125q0.828125 -0.8125 0.828125 -2.09375q0 -0.921875 -0.390625 -1.59375q-0.390625 -0.6875 -1.0625 -1.0625q-0.671875 -0.390625 -1.515625 -0.390625q-0.2968788 0 -0.5000038 -0.203125q-0.203125 -0.203125 -0.203125 -0.515625q0 -0.3125 0.203125 -0.515625q0.203125 -0.203125 0.5000038 -0.203125q0.65625 0 1.203125 -0.328125q0.546875 -0.328125 0.875 -0.859375q0.34375 -0.546875 0.34375 -1.203125q0 -0.984375 -0.671875 -1.640625q-0.671875 -0.671875 -1.78125 -0.671875q-0.7968788 0 -1.4062538 0.3125q-0.609375 0.3125 -0.96875 0.828125q-0.34375 0.5 -0.34375 1.15625q0 0.3125 -0.203125 0.53125q-0.1875 0.21875 -0.484375 0.21875q-0.3125 0 -0.5 -0.21875q-0.1875 -0.21875 -0.1875 -0.515625q0 -1.015625 0.53125 -1.84375q0.53125 -0.84375 1.4375 -1.3125q0.921875 -0.46875 2.1250038 -0.46875q1.078125 0 1.9375 0.46875q0.875 0.46875 1.390625 1.3125q0.515625 0.828125 0.515625 1.84375q0 0.640625 -0.3125 1.234375q-0.3125 0.59375 -0.8125 1.078125q-0.5 0.46875 -1.109375 0.734375q0.953125 0.28125 1.59375 0.859375q0.640625 0.578125 0.9375 1.359375q0.296875 0.765625 0.296875 1.609375q0 1.234375 -0.59375 2.203125q-0.578125 0.953125 -1.609375 1.5q-1.03125 0.546875 -2.28125 0.546875z" fill-rule="nonzero"/><path fill="#000000" fill-opacity="0.0" d="m6.7125983 243.2126l135.84251 0l0 42.01573l-135.84251 0z" fill-rule="evenodd"/><path fill="#000000" d="m21.806349 270.1326q-0.296875 0 -0.515625 -0.203125q-0.203125 -0.21875 -0.203125 -0.53125l0 -13.84375l1.453125 0l0 13.84375q0 0.3125 -0.203125 0.53125q-0.203125 0.203125 -0.53125 0.203125zm-5.140625 -13.25q-0.296875 0 -0.484375 -0.1875q-0.1875 -0.1875 -0.1875 -0.46875q0 -0.296875 0.1875 -0.484375q0.1875 -0.1875 0.484375 -0.1875l10.3125 0q0.296875 0 0.484375 0.1875q0.1875 0.1875 0.1875 0.484375q0 0.28125 -0.1875 0.46875q-0.1875 0.1875 -0.484375 0.1875l-10.3125 0zm13.783188 13.25q-0.328125 0 -0.53125 -0.1875q-0.1875 -0.203125 -0.1875 -0.546875l0 -8.75q0 -0.328125 0.1875 -0.515625q0.203125 -0.203125 0.53125 -0.203125q0.3125 0 0.515625 0.203125q0.203125 0.1875 0.203125 0.515625l0 8.75q0 0.34375 -0.203125 0.546875q-0.203125 0.1875 -0.515625 0.1875zm-0.015625 -12.140625q-0.421875 0 -0.71875 -0.296875q-0.296875 -0.3125 -0.296875 -0.734375q0 -0.46875 0.3125 -0.734375q0.3125 -0.265625 0.71875 -0.265625q0.390625 0 0.6875 0.265625q0.3125 0.265625 0.3125 0.734375q0 0.421875 -0.296875 0.734375q-0.296875 0.296875 -0.71875 0.296875zm9.016661 12.234375q-1.515625 0 -2.6875 -0.65625q-1.15625 -0.671875 -1.828125 -1.84375q-0.65625 -1.171875 -0.65625 -2.6875q0 -1.53125 0.625 -2.6875q0.625 -1.171875 1.71875 -1.84375q1.109375 -0.671875 2.546875 -0.671875q1.40625 0 2.453125 0.640625q1.0625 0.640625 1.640625 1.78125q0.578125 1.140625 0.578125 2.59375q0 0.296875 -0.1875 0.484375q-0.1875 0.171875 -0.484375 0.171875l-7.921875 0l0 -1.203125l8.078125 0l-0.796875 0.578125q0.015625 -1.078125 -0.40625 -1.9375q-0.40625 -0.859375 -1.15625 -1.34375q-0.75 -0.484375 -1.796875 -0.484375q-1.0625 0 -1.875 0.515625q-0.796875 0.5 -1.234375 1.390625q-0.4375 0.875 -0.4375 2.015625q0 1.140625 0.484375 2.015625q0.5 0.875 1.359375 1.390625q0.859375 0.5 1.984375 0.5q0.671875 0 1.34375 -0.234375q0.6875 -0.234375 1.09375 -0.59375q0.203125 -0.171875 0.46875 -0.171875q0.265625 -0.015625 0.4375 0.140625q0.25 0.21875 0.25 0.484375q0.015625 0.25 -0.203125 0.4375q-0.625 0.53125 -1.578125 0.875q-0.9375 0.34375 -1.8125 0.34375zm7.423691 -6.375q0.046875 -1.15625 0.59375 -2.0625q0.5625 -0.921875 1.4375 -1.4375q0.890625 -0.53125 1.96875 -0.53125q0.859375 0 1.328125 0.25q0.46875 0.234375 0.359375 0.703125q-0.078125 0.28125 -0.265625 0.375q-0.171875 0.078125 -0.421875 0.0625q-0.25 -0.015625 -0.5625 -0.03125q-1.046875 -0.09375 -1.859375 0.21875q-0.8125 0.296875 -1.296875 0.9375q-0.46875 0.640625 -0.46875 1.515625l-0.8125 0zm0.109375 6.28125q-0.34375 0 -0.53125 -0.1875q-0.1875 -0.1875 -0.1875 -0.515625l0 -8.796875q0 -0.328125 0.1875 -0.515625q0.1875 -0.1875 0.53125 -0.1875q0.328125 0 0.515625 0.1875q0.1875 0.1875 0.1875 0.515625l0 8.796875q0 0.328125 -0.1875 0.515625q-0.1875 0.1875 -0.515625 0.1875zm19.979603 0q-0.28125 0 -0.484375 -0.203125q-0.203125 -0.203125 -0.203125 -0.53125l0 -2.75l-6.687504 0q-0.296875 0 -0.5 -0.1875q-0.1875 -0.203125 -0.21875 -0.46875q-0.015625 -0.265625 0.140625 -0.484375l7.390629 -9.671875q0.09375 -0.125 0.234375 -0.203125q0.140625 -0.09375 0.359375 -0.09375q0.296875 0 0.484375 0.21875q0.203125 0.21875 0.203125 0.53125l0 9.046875l1.484375 0q0.296875 0 0.5 0.15625q0.203125 0.140625 0.203125 0.515625q0 0.25 -0.203125 0.453125q-0.203125 0.1875 -0.5 0.1875l-1.484375 0l0 2.75q0 0.328125 -0.203125 0.53125q-0.203125 0.203125 -0.515625 0.203125zm-6.593754 -4.234375l-0.25 -0.5625l6.156254 0l0 -8.0l0.375 0.390625l-6.281254 8.171875z" fill-rule="nonzero"/></g></svg>